<svg width="201" height="263" viewBox="0 0 201 263" fill="none" xmlns="http://www.w3.org/2000/svg">
<path d="M94.4094 263C76.0997 263 59.7926 259.171 45.4882 251.513C31.3745 243.855 20.2169 232.368 12.0157 217.052C4.00523 201.737 0 183.07 0 161.054C0 133.294 5.34033 108.501 16.021 86.6761C26.8924 64.851 36.7222 54.0371 51.2502 42.8195C55.7203 31.6018 52.3677 1.31406 61.308 0.192292C71.3658 -2.05126 84.7763 15.897 91.4815 24.8712C100.422 22.7787 108.245 19.2623 122.772 19.2623C136.961 19.2623 146.715 20.3502 151.828 21.5059C155.181 17.0188 168.591 -0.929486 179.767 0.192282C189.825 5.80112 184.237 30.48 189.825 43.9412C196.53 56.2807 201 63.0113 201 75.3507C200.797 83.2031 199.882 94.4028 197.974 98.4322C193.778 105.516 187.59 107.882 184.237 107.882C180.884 107.882 178.378 107.508 176.209 105.603C173.157 102.922 169.655 99.0364 169.655 94.2502C169.655 91.187 170.132 87.4538 171.086 83.0505C171.276 81.9018 171.563 80.0831 171.944 77.5942C172.326 74.914 171.944 68.0996 171.944 66.3766C167.613 42.8194 133.948 41.6977 116.067 43.9412C98.1867 46.1847 88.3971 51.4137 76.9535 59.646C64.4787 68.6201 57.1895 82.8262 50.1326 98.9078C43.0758 114.798 42.0551 134.347 42.0551 156.172C42.0551 181.252 47.014 199.535 56.9317 211.022C67.0402 222.317 81.44 227.965 100.131 227.965C111.575 227.965 122.446 225.668 132.745 221.073C143.045 216.287 153.535 208.916 164.215 198.961C167.648 195.706 170.891 194.079 173.942 194.079C176.612 194.079 178.71 195.323 180.236 197.812C181.762 200.301 182.525 203.46 182.525 207.289C182.525 210.735 181.857 214.181 180.522 217.627C179.378 221.073 177.471 224.136 174.8 226.816C163.548 238.878 150.96 247.971 137.037 254.098C123.114 260.033 108.905 263 94.4094 263Z" fill="white"/>
<path d="M113.832 93.299C113.832 98.7577 119.42 102.273 120.537 102.273C121.655 102.273 127.243 98.9078 127.243 93.299C127.243 88.8119 123.89 88.8119 120.537 88.8119C117.185 88.8119 113.832 88.8119 113.832 93.299Z" fill="white"/>
<path d="M115.137 146.182L124.074 146.401L127.243 133.683L111.597 133.683L115.137 146.182Z" fill="white"/>
<path d="M98.1867 180.797C99.3043 171.823 115.137 146.182 115.137 146.182L124.074 146.401C124.074 146.401 130.579 173.19 126.117 181.48C121.655 189.771 105.524 199.506 105.524 199.506C105.524 199.506 97.0692 189.771 98.1867 180.797Z" fill="white"/>
<path d="M139.267 109.943C137.324 111.233 135.08 111.993 132.755 112.147C130.43 112.302 128.106 111.846 126.01 110.824C123.914 109.802 122.12 108.25 120.804 106.32C119.488 104.391 118.695 102.15 118.504 99.8193L122.969 99.4505C123.097 101.003 123.624 102.495 124.501 103.779C125.377 105.064 126.572 106.098 127.968 106.778C129.363 107.459 130.911 107.763 132.459 107.66C134.007 107.557 135.502 107.051 136.796 106.192L139.267 109.943Z" fill="white"/>
<path d="M102.12 109.943C104.063 111.233 106.308 111.993 108.633 112.147C110.957 112.302 113.282 111.846 115.378 110.824C117.473 109.802 119.268 108.25 120.584 106.32C121.9 104.391 122.693 102.15 122.884 99.8193L118.418 99.4505C118.291 101.003 117.763 102.495 116.887 103.779C116.01 105.064 114.816 106.098 113.42 106.778C112.025 107.459 110.477 107.763 108.929 107.66C107.381 107.557 105.886 107.051 104.592 106.192L102.12 109.943Z" fill="white"/>
</svg>
