<svg width="77" height="68" viewBox="0 0 77 68" fill="none" xmlns="http://www.w3.org/2000/svg">
<g filter="url(#filter0_d_151_1617)">
<path fill-rule="evenodd" clip-rule="evenodd" d="M47.7699 25.247C51.951 25.3763 55.5034 20.1801 55.7043 13.641C55.9052 7.10183 52.6785 1.69599 48.4974 1.56669C44.3162 1.43739 40.7639 6.63359 40.563 13.1727C40.3621 19.7119 43.5887 25.1177 47.7699 25.247ZM29.7506 25.3933C33.8932 24.8103 36.5171 19.0855 35.6113 12.6067C34.7055 6.12792 30.613 1.34844 26.4704 1.93146C22.3278 2.51448 19.7039 8.23923 20.6097 14.718C21.5155 21.1969 25.608 25.9763 29.7506 25.3933ZM17.1662 23.9521C19.2224 29.4606 18.0341 34.999 14.512 36.3225C10.9898 37.646 6.46762 34.2534 4.41133 28.745C2.35504 23.2365 3.54335 17.6981 7.06549 16.3745C10.5876 15.051 15.1099 18.4436 17.1662 23.9521ZM62.7689 35.4833C59.1936 34.3119 57.7708 28.8294 59.5908 23.2378C61.4109 17.6463 65.7846 14.0632 69.3599 15.2346C72.9351 16.4061 74.358 21.8886 72.5379 27.4801C70.7179 33.0716 66.3441 36.6548 62.7689 35.4833ZM49.816 37.7757C47.8063 35.0986 46.2365 33.0076 40.7958 32.1451C35.3054 32.831 30.9129 33.7099 27.841 39.2292C26.5523 40.4508 25.8408 40.9768 25.208 41.4445C23.9915 42.3436 23.0663 43.0275 18.892 48.0257C16.8327 50.4914 17.3604 56.5682 19.9488 58.5033C20.5648 58.9639 21.1029 59.4536 21.6189 59.9232C22.6662 60.8765 23.6225 61.7469 24.9555 62.1227C27.1838 62.7508 29.1334 62.3295 31.7264 61.7691L31.7264 61.7691C32.0854 61.6915 32.4567 61.6113 32.8428 61.5308C35.2856 61.0215 37.7733 60.5564 40.2672 60.7076C42.2783 60.8295 43.6197 61.2493 44.838 61.6305C45.9096 61.9658 46.8858 62.2712 48.1386 62.318L48.3621 62.3264C50.9836 62.4253 53.8359 62.5329 56.12 61.2966C57.8088 60.3825 59.3535 58.7652 59.8179 56.9236C60.7018 53.4191 59.8008 48.6546 57.5563 46.311C56.9031 45.6289 56.2845 44.9944 55.6889 44.3834L55.6884 44.3829L55.6883 44.3827C54.0678 42.7205 52.6166 41.2318 51.0962 39.4312C50.6298 38.8597 50.2143 38.3062 49.816 37.7757ZM35.2555 40.3957C35.2555 38.297 36.9377 36.5957 39.0128 36.5957C41.0878 36.5957 42.77 38.297 42.77 40.3957V43.8157H46.1516C48.2267 43.8157 49.9088 45.517 49.9088 47.6156C49.9088 49.7143 48.2267 51.4156 46.1516 51.4156H42.77V54.8356C42.77 56.9343 41.0878 58.6356 39.0128 58.6356C36.9377 58.6356 35.2555 56.9343 35.2555 54.8356V51.4156H31.874C29.7989 51.4156 28.1167 49.7143 28.1167 47.6156C28.1167 45.517 29.7989 43.8157 31.874 43.8157H35.2555V40.3957Z" fill="white"/>
</g>
<defs>
<filter id="filter0_d_151_1617" x="0.402832" y="0.564331" width="75.9272" height="66.8712" filterUnits="userSpaceOnUse" color-interpolation-filters="sRGB">
<feFlood flood-opacity="0" result="BackgroundImageFix"/>
<feColorMatrix in="SourceAlpha" type="matrix" values="0 0 0 0 0 0 0 0 0 0 0 0 0 0 0 0 0 0 127 0" result="hardAlpha"/>
<feOffset dy="2"/>
<feGaussianBlur stdDeviation="1.5"/>
<feComposite in2="hardAlpha" operator="out"/>
<feColorMatrix type="matrix" values="0 0 0 0 0 0 0 0 0 0 0 0 0 0 0 0 0 0 0.25 0"/>
<feBlend mode="normal" in2="BackgroundImageFix" result="effect1_dropShadow_151_1617"/>
<feBlend mode="normal" in="SourceGraphic" in2="effect1_dropShadow_151_1617" result="shape"/>
</filter>
</defs>
</svg>
