<svg width="103" height="86" viewBox="0 0 103 86" fill="none" xmlns="http://www.w3.org/2000/svg">
<path d="M20.8942 68.7726C19.6204 68.0369 18.0135 68.5117 17.3049 69.8362L11.2948 81.0608C10.5862 82.3838 11.0446 84.0534 12.3185 84.7901C12.7244 85.0246 13.1649 85.1361 13.5988 85.1361C14.5256 85.1361 15.4249 84.6282 15.9078 83.7265L21.9179 72.5014C22.6259 71.1784 22.168 69.5088 20.8942 68.7726Z" fill="white"/>
<path d="M66.9485 81.0605L60.9384 69.8359C60.2288 68.5119 58.6214 68.0367 57.3491 68.7723C56.0753 69.5085 55.6174 71.1781 56.326 72.5016L62.3361 83.7268C62.8184 84.6279 63.7178 85.1359 64.6445 85.1359C65.0785 85.1359 65.5189 85.0248 65.9254 84.7898C67.1987 84.0536 67.6571 82.3841 66.9485 81.0605Z" fill="white"/>
<path d="M74.6332 47.2984C74.6332 68.0257 58.4609 84.8286 38.5111 84.8286C18.5613 84.8286 2.38953 68.0257 2.38953 47.2984C2.38953 26.5695 18.5613 9.76813 38.5111 9.76813C58.4609 9.76813 74.6332 26.5695 74.6332 47.2984Z" fill="#425A9D"/>
<path d="M67.9691 47.2984C67.9691 64.2009 54.7804 77.904 38.5113 77.904C22.2431 77.904 9.05545 64.2009 9.05545 47.2984C9.05545 30.3953 22.2431 16.6922 38.5113 16.6922C54.7804 16.6922 67.9691 30.3953 67.9691 47.2984Z" fill="white"/>
<path d="M52.122 46.0596H39.5375L39.5385 30.1225C39.5385 29.5337 39.0791 29.0564 38.5124 29.0564C37.9451 29.0564 37.4857 29.5332 37.4857 30.1225L37.4847 47.1263V47.1273C37.4847 47.7157 37.9441 48.193 38.5114 48.193C38.5144 48.193 38.5169 48.1924 38.5199 48.1924H52.122C52.6888 48.1924 53.1482 47.7146 53.1482 47.1263C53.1482 46.5374 52.6888 46.0596 52.122 46.0596Z" fill="#1C1C1B"/>
<path d="M38.5112 26.3405C37.9224 26.3405 37.4451 25.8445 37.4451 25.2323V19.5081C37.4451 18.8965 37.9224 18.4005 38.5112 18.4005C39.1004 18.4005 39.5783 18.8965 39.5783 19.5081V25.2323C39.5783 25.8445 39.1004 26.3405 38.5112 26.3405Z" fill="#8E8EFF"/>
<path d="M38.5112 75.8506C37.9224 75.8506 37.4451 75.3541 37.4451 74.7424V69.0188C37.4451 68.4061 37.9224 67.9106 38.5112 67.9106C39.1004 67.9106 39.5783 68.4061 39.5783 69.0188V74.7424C39.5783 75.3541 39.1004 75.8506 38.5112 75.8506Z" fill="#8E8EFF"/>
<path d="M17.4412 48.2342H11.9304C11.3417 48.2342 10.8648 47.7377 10.8648 47.1255C10.8648 46.5143 11.3417 46.0184 11.9304 46.0184H17.4412C18.0289 46.0184 18.5053 46.5143 18.5053 47.1255C18.5053 47.7377 18.0289 48.2342 17.4412 48.2342Z" fill="#8E8EFF"/>
<path d="M21.0764 34.7981L16.393 31.7827C16.1888 31.6509 15.9481 31.6105 15.7119 31.667C15.4782 31.7241 15.2805 31.873 15.1561 32.0842C15.0298 32.2958 14.9898 32.5459 15.0443 32.7892C15.0997 33.032 15.242 33.238 15.4457 33.3687L20.1231 36.3815C20.2649 36.4754 20.4297 36.5258 20.601 36.5258C20.9151 36.5258 21.2012 36.3608 21.367 36.0832C21.6256 35.6474 21.4963 35.071 21.0764 34.7981Z" fill="#B8CBFE"/>
<path d="M27.885 64.9413C27.6813 64.81 27.4386 64.769 27.2059 64.8256C26.9717 64.8826 26.7735 65.0305 26.6472 65.2427L23.745 70.1066C23.4838 70.544 23.6122 71.1204 24.0351 71.3943C24.1769 71.4851 24.3402 71.5328 24.506 71.5328C24.8201 71.5328 25.1067 71.3684 25.272 71.0913L28.1742 66.2274C28.4353 65.7906 28.306 65.2136 27.885 64.9413Z" fill="#B8CBFE"/>
<path d="M26.8712 22.2811C26.639 21.8266 26.0942 21.6513 25.6553 21.8925C25.2189 22.1332 25.0521 22.6993 25.2828 23.1548L27.8599 28.2128C28.0162 28.5189 28.3203 28.7098 28.6538 28.7098C28.8002 28.7098 28.941 28.674 29.0753 28.6019C29.2875 28.4846 29.4433 28.288 29.5137 28.0483C29.5841 27.8096 29.5607 27.558 29.4483 27.3391L26.8712 22.2811Z" fill="#B8CBFE"/>
<path d="M19.4664 56.5429L14.5988 59.2205C14.3851 59.3388 14.2288 59.5355 14.1589 59.7751C14.0885 60.0128 14.1119 60.2649 14.2243 60.4823C14.3806 60.7889 14.6847 60.9793 15.0187 60.9793C15.166 60.9793 15.3113 60.942 15.4397 60.8714L20.3083 58.1938C20.521 58.0765 20.6773 57.8815 20.7472 57.6428C20.8181 57.4041 20.7946 57.1515 20.6818 56.9299C20.4486 56.477 19.9048 56.3043 19.4664 56.5429Z" fill="#B8CBFE"/>
<path d="M59.7692 48.2342H65.2799C65.8686 48.2342 66.3455 47.7377 66.3455 47.1255C66.3455 46.5143 65.8686 46.0184 65.2799 46.0184H59.7692C59.1814 46.0184 58.705 46.5143 58.705 47.1255C58.705 47.7377 59.1814 48.2342 59.7692 48.2342Z" fill="#8E8EFF"/>
<path d="M56.134 34.7981L60.8174 31.7827C61.0216 31.6509 61.2623 31.6105 61.4985 31.667C61.7327 31.7241 61.9304 31.873 62.0543 32.0842C62.1806 32.2958 62.2205 32.5459 62.1661 32.7892C62.1107 33.032 61.9684 33.238 61.7646 33.3687L57.0873 36.3815C56.9455 36.4754 56.7807 36.5258 56.6094 36.5258C56.2953 36.5258 56.0092 36.3608 55.8434 36.0832C55.5853 35.6474 55.7141 35.071 56.134 34.7981Z" fill="#B8CBFE"/>
<path d="M49.3257 64.9413C49.5289 64.81 49.7721 64.769 50.0043 64.8256C50.239 64.8826 50.4372 65.0305 50.5635 65.2427L53.4657 70.1066C53.7269 70.544 53.5985 71.1204 53.1756 71.3943C53.0338 71.4851 52.87 71.5328 52.7047 71.5328C52.3906 71.5328 52.104 71.3684 51.9382 71.0913L49.0365 66.2274C48.7749 65.7906 48.9042 65.2136 49.3257 64.9413Z" fill="#B8CBFE"/>
<path d="M50.3392 22.2811C50.5714 21.8266 51.1161 21.6513 51.5551 21.8925C51.9915 22.1332 52.1583 22.6993 51.9276 23.1548L49.3505 28.2128C49.1942 28.5189 48.8901 28.7098 48.5565 28.7098C48.4102 28.7098 48.2694 28.674 48.1356 28.6019C47.9228 28.4846 47.767 28.288 47.6966 28.0483C47.6262 27.8096 47.6502 27.558 47.762 27.3391L50.3392 22.2811Z" fill="#B8CBFE"/>
<path d="M57.744 56.5429L62.6116 59.2205C62.8253 59.3388 62.9821 59.5355 63.052 59.7751C63.1219 60.0128 63.0985 60.2649 62.9861 60.4823C62.8298 60.7889 62.5257 60.9793 62.1917 60.9793C62.0444 60.9793 61.899 60.942 61.7712 60.8714L56.9021 58.1938C56.6894 58.0765 56.5331 57.8815 56.4632 57.6428C56.3923 57.4041 56.4162 57.1515 56.5286 56.9299C56.7618 56.477 57.3056 56.3043 57.744 56.5429Z" fill="#B8CBFE"/>
<path d="M42.8278 47.1271C42.8278 49.6035 40.8958 51.6128 38.511 51.6128C36.1271 51.6128 34.1946 49.6035 34.1946 47.1271C34.1946 44.6493 36.1271 42.6414 38.511 42.6414C40.8958 42.6414 42.8278 44.6493 42.8278 47.1271Z" fill="#FEC900"/>
<path d="M38.5112 43.7488C36.7186 43.7488 35.26 45.2637 35.26 47.1273C35.26 48.9888 36.7186 50.5043 38.5112 50.5043C40.3029 50.5043 41.7615 48.9888 41.7615 47.1273C41.7615 45.2637 40.3029 43.7488 38.5112 43.7488ZM38.5112 52.7191C35.5431 52.7191 33.1283 50.2111 33.1283 47.1273C33.1283 44.0419 35.5431 41.5329 38.5112 41.5329C41.4793 41.5329 43.8942 44.0419 43.8942 47.1273C43.8942 50.2111 41.4793 52.7191 38.5112 52.7191Z" fill="#8E8EFF"/>
<path d="M13.2558 3.18823L11.8931 0.912695C11.3503 0.0058012 10.2018 -0.272285 9.32843 0.292189L7.1388 1.70752C6.26495 2.272 5.9978 3.46528 6.54109 4.37269L7.9038 6.64823C8.44708 7.55564 9.59508 7.83321 10.4684 7.26873L12.6586 5.8534C13.5314 5.28892 13.7991 4.09564 13.2558 3.18823Z" fill="#436AEA"/>
<path d="M32.2162 10.8616C33.4876 10.0392 33.7627 8.2104 32.7595 7.05499C26.9497 0.363277 17.1985 -1.26478 9.57496 3.66296C1.95147 8.59069 -0.952217 18.3989 2.25807 26.7711C2.81234 28.2165 4.51311 28.7686 5.78444 27.9468L32.2162 10.8616Z" fill="#8096DE"/>
<path d="M25.4802 4.32564C23.7614 3.21952 22.0881 2.76867 20.263 2.99955C18.5602 3.21537 17.5551 4.15288 17.5311 5.44162C17.5056 6.75371 18.4249 7.58797 20.2111 7.74206C21.6951 7.86969 23.1967 7.75763 24.6093 8.41705C25.4572 8.81135 26.389 8.69046 26.9822 7.81522C27.6643 6.80923 27.2244 5.93398 26.5133 5.1874C26.1543 4.81022 25.7104 4.51449 25.4802 4.32564Z" fill="white"/>
<path d="M14.5471 4.31246C13.6313 3.86732 12.0064 4.54645 11.5086 5.5514C11.1311 6.31251 11.3104 6.95221 12.0524 7.33043C12.9602 7.79425 14.5361 7.11512 15.006 6.08423C15.3506 5.32883 15.2037 4.70728 14.5471 4.31246Z" fill="white"/>
<path d="M70.1275 1.82632L67.9373 0.410464C67.064 -0.15401 65.916 0.124077 65.3727 1.03149L64.01 3.30703C63.4667 4.21444 63.7344 5.40668 64.6077 5.97116L66.7978 7.38701C67.6707 7.952 68.8192 7.67392 69.3625 6.76599L70.7247 4.49097C71.268 3.58356 71.0008 2.39079 70.1275 1.82632Z" fill="#436AEA"/>
<path d="M45.0497 10.9796C43.7784 10.1578 43.5033 8.32897 44.5064 7.17357C50.3163 0.481852 60.0675 -1.1462 67.691 3.78153C75.3145 8.70927 78.2182 18.517 75.0079 26.8897C74.4536 28.3346 72.7529 28.8871 71.4815 28.0653L45.0497 10.9796Z" fill="#8096DE"/>
<path d="M71.9322 10.4963C71.1093 8.5777 69.9688 7.22721 68.3339 6.35301C66.8084 5.5369 65.4707 5.72627 64.7536 6.77792C64.0231 7.84824 64.3322 9.07524 65.7258 10.2457C66.8848 11.218 68.1871 12.0014 68.9996 13.3716C69.4869 14.1934 70.3233 14.637 71.2875 14.2593C72.3956 13.8255 72.5049 12.8445 72.3207 11.812C72.2278 11.2901 72.0206 10.7868 71.9322 10.4963Z" fill="white"/>
<path d="M62.8959 4.10126C62.3791 3.198 60.6678 2.81148 59.7126 3.35209C58.9886 3.76196 58.7908 4.39491 59.1998 5.14149C59.7006 6.05513 61.3709 6.41364 62.3172 5.83515C63.0108 5.41128 63.2255 4.81153 62.8959 4.10126Z" fill="white"/>
<path d="M101.296 43.2015C98.8624 50.1817 91.4446 53.7906 84.727 51.2629C82.4784 50.4167 80.5964 48.989 79.1743 47.2042L71.9912 48.3269L76.9711 43.2067C75.9725 40.3506 75.8941 37.1288 76.9681 34.0475C79.401 27.0679 86.8192 23.4584 93.5369 25.9866C100.255 28.5143 103.729 36.2219 101.296 43.2015Z" fill="#B8CBFE"/>
<path d="M83.7996 41.5144C82.9941 41.7126 82.1867 41.1948 81.9965 40.358L80.3107 33.0603C80.1199 32.2234 80.6188 31.3845 81.4242 31.1868C82.2291 30.9887 83.0371 31.5064 83.2273 32.3428L84.9126 39.641C85.1034 40.4773 84.605 41.3162 83.7996 41.5144Z" fill="white"/>
<path d="M85.7731 43.4169C85.9634 44.2537 85.465 45.0921 84.6601 45.2903C83.8541 45.4885 83.0472 44.9707 82.8564 44.1339C82.6657 43.2975 83.164 42.4581 83.9695 42.2604C84.7749 42.0622 85.5824 42.58 85.7731 43.4169Z" fill="white"/>
<path d="M89.1887 38.3615C88.3613 38.361 87.6907 37.6626 87.6917 36.803L87.7027 29.3143C87.7037 28.4541 88.3753 27.7579 89.2032 27.7584C90.0306 27.7594 90.7007 28.4578 90.6997 29.3175L90.6892 36.8066C90.6882 37.6663 90.0161 38.3625 89.1887 38.3615Z" fill="white"/>
<path d="M90.6849 40.687C90.6844 41.5467 90.0123 42.2429 89.1848 42.2419C88.3569 42.2414 87.6868 41.5431 87.6878 40.6834C87.6888 39.8232 88.3604 39.1269 89.1878 39.128C90.0158 39.129 90.6859 39.8268 90.6849 40.687Z" fill="white"/>
<path d="M93.8163 43.3733C93.0298 43.1061 92.6003 42.2267 92.858 41.4096L95.0956 34.3267C95.3532 33.509 96.1996 33.0634 96.9861 33.3311C97.7726 33.5978 98.2015 34.4777 97.9443 35.2948L95.7068 42.3777C95.4496 43.1949 94.6027 43.641 93.8163 43.3733Z" fill="white"/>
<path d="M94.5451 46.0662C94.2879 46.8833 93.4415 47.3295 92.6546 47.0618C91.8681 46.7941 91.4392 45.9147 91.6963 45.0976C91.954 44.2804 92.8004 43.8342 93.5868 44.1019C94.3738 44.3691 94.8027 45.2491 94.5451 46.0662Z" fill="white"/>
</svg>
