<svg width="129" height="121" viewBox="0 0 129 121" fill="none" xmlns="http://www.w3.org/2000/svg">
<path fill-rule="evenodd" clip-rule="evenodd" d="M63.9223 0L48.5454 15.3769H26.7992V37.1231L11.4224 52.4999L26.7992 67.8768V89.623H48.5454L63.9223 105L79.2992 89.623H101.045V67.8768L116.422 52.4999L101.045 37.123V15.3769H79.2992L63.9223 0ZM31.0827 19.6603H44.262L44.262 19.6603H50.3197L50.3197 19.6603L54.6032 15.3769L63.9223 6.05773L63.9223 6.0577L73.2415 15.3769L77.5249 19.6603H83.5826H96.7619L96.7619 38.8974L101.045 43.1807L110.365 52.4999L101.045 61.8192L96.7619 66.1026V85.3396H77.5249L73.2415 89.623L63.9223 98.9422L54.6031 89.623L50.3197 85.3396L31.0827 85.3395V72.1602L31.0827 66.1026L31.0827 66.1025L26.7992 61.8191L17.4801 52.5L17.4801 52.4999L26.7992 43.1808L31.0827 38.8974L31.0827 38.8973V32.8396L31.0827 32.8397V19.6603Z" fill="white"/>
<path d="M34.4477 25.8398C34.3106 25.8398 34.1936 25.7913 34.0965 25.6942C33.9994 25.5971 33.9508 25.48 33.9508 25.3429C33.9508 25.2059 33.9994 25.0888 34.0965 24.9917C34.1936 24.8946 34.3106 24.8461 34.4477 24.8461C34.5848 24.8461 34.7019 24.8946 34.7989 24.9917C34.896 25.0888 34.9446 25.2059 34.9446 25.3429C34.9446 25.48 34.896 25.5971 34.7989 25.6942C34.7019 25.7913 34.5848 25.8398 34.4477 25.8398ZM34.4477 27.2962C34.3106 27.2962 34.1936 27.2476 34.0965 27.1505C33.9994 27.0535 33.9508 26.9364 33.9508 26.7993C33.9508 26.6622 33.9994 26.5452 34.0965 26.4481C34.1936 26.351 34.3106 26.3024 34.4477 26.3024C34.5848 26.3024 34.7019 26.351 34.7989 26.4481C34.896 26.5452 34.9446 26.6622 34.9446 26.7993C34.9446 26.9364 34.896 27.0535 34.7989 27.1505C34.7019 27.2476 34.5848 27.2962 34.4477 27.2962Z" fill="white"/>
<path d="M35.0397 31.0827L35.5965 30.226H37.2842V31.0827H35.0397ZM35.9392 31.0827V29.3694H36.3161V31.0827H35.9392ZM35.4766 28.3413V27.2533L36.3333 26.8421V27.8787C36.2819 27.9758 36.2076 28.0586 36.1105 28.1272C36.0192 28.19 35.9164 28.2414 35.8021 28.2814C35.6936 28.3156 35.5851 28.3356 35.4766 28.3413ZM35.4766 27.082V24.4177L36.3333 24.2292V26.6708L35.4766 27.082ZM36.3333 29.7977L35.0568 28.5127C35.1311 28.5127 35.2282 28.5127 35.3481 28.5127C35.468 28.5127 35.5908 28.5041 35.7165 28.487C35.8478 28.4641 35.9678 28.4242 36.0763 28.367C36.1905 28.3099 36.2762 28.2271 36.3333 28.1186V29.7977ZM35.0568 31.0827C34.8227 31.0827 34.6085 31.0256 34.4143 30.9114C34.2201 30.7972 34.0631 30.643 33.9431 30.4488C33.8289 30.2489 33.7718 30.0319 33.7718 29.7977C33.7718 29.5578 33.8289 29.3408 33.9431 29.1466C34.0631 28.9524 34.2201 28.7982 34.4143 28.684C34.6085 28.5698 34.8227 28.5127 35.0568 28.5127C35.291 28.5127 35.5052 28.5698 35.6993 28.684C35.8935 28.7982 36.0477 28.9524 36.1619 29.1466C36.2762 29.3408 36.3333 29.5578 36.3333 29.7977C36.3333 30.0319 36.2762 30.2489 36.1619 30.4488C36.0477 30.643 35.8935 30.7972 35.6993 30.9114C35.5052 31.0256 35.291 31.0827 35.0568 31.0827ZM35.0568 30.226C35.1768 30.226 35.2767 30.1861 35.3567 30.1061C35.4423 30.0204 35.4852 29.9176 35.4852 29.7977C35.4852 29.6778 35.4423 29.5778 35.3567 29.4979C35.2767 29.4122 35.1768 29.3694 35.0568 29.3694C34.9369 29.3694 34.8341 29.4122 34.7484 29.4979C34.6685 29.5778 34.6285 29.6778 34.6285 29.7977C34.6285 29.9176 34.6685 30.0204 34.7484 30.1061C34.8341 30.1861 34.9369 30.226 35.0568 30.226Z" fill="white"/>
<path d="M38.0984 30.6544V27.8445L38.9551 27.656V30.6544H38.0984ZM36.9419 31.0827V30.226H39.2977V31.0827H36.9419ZM38.4839 31.0827V30.226H44.0952C44.1009 29.9862 44.0524 29.7834 43.9496 29.6178C43.8525 29.4522 43.644 29.3694 43.3242 29.3694H38.4839V28.5127H43.3242C43.6783 28.5127 43.961 28.5612 44.1723 28.6583C44.3893 28.7554 44.5521 28.8868 44.6606 29.0524C44.7748 29.218 44.8519 29.4036 44.8919 29.6092C44.9319 29.8148 44.9519 30.029 44.9519 30.2517C44.9519 30.4688 44.9519 30.6801 44.9519 30.8857C44.9519 30.9542 44.9233 31.0028 44.8662 31.0313C44.8091 31.0599 44.752 31.077 44.6949 31.0827C44.6378 31.0827 44.6092 31.0827 44.6092 31.0827H38.4839Z" fill="white"/>
<path d="M45.7266 31.0827C45.7266 31.0827 45.698 31.0827 45.6409 31.0827C45.5838 31.077 45.5267 31.0599 45.4696 31.0313C45.4125 31.0028 45.3839 30.9542 45.3839 30.8857V24.4177L46.2406 24.2292V30.226H47.2686V31.0827H45.7266Z" fill="white"/>
<path d="M48.5529 27.2962C48.4158 27.2962 48.2987 27.2476 48.2017 27.1505C48.1046 27.0535 48.056 26.9364 48.056 26.7993C48.056 26.6622 48.1046 26.5452 48.2017 26.4481C48.2987 26.351 48.4158 26.3024 48.5529 26.3024C48.69 26.3024 48.807 26.351 48.9041 26.4481C49.0012 26.5452 49.0498 26.6622 49.0498 26.7993C49.0498 26.9364 49.0012 27.0535 48.9041 27.1505C48.807 27.2476 48.69 27.2962 48.5529 27.2962Z" fill="white"/>
<path d="M46.9226 31.0827V30.226H48.576C48.4561 30.1575 48.3304 30.049 48.199 29.9005C48.0734 29.752 47.9763 29.6235 47.9078 29.515L48.3875 28.5983C48.5874 28.9125 48.8101 29.1923 49.0557 29.4379C49.307 29.6835 49.5669 29.8777 49.8353 30.0204C50.1095 30.1575 50.3836 30.226 50.6577 30.226H52.748L52.234 31.0827H46.9226Z" fill="white"/>
<path d="M49.232 29.6692C49.4204 29.6406 49.5575 29.5835 49.6432 29.4979C49.7288 29.4122 49.7831 29.3037 49.8059 29.1723C49.8231 29.0353 49.8316 28.8839 49.8316 28.7183V24.4177L50.6883 24.2292V28.5127C50.6883 28.8554 50.6426 29.1181 50.5513 29.3008C50.4542 29.4779 50.3342 29.6007 50.1914 29.6692C50.0487 29.732 49.9059 29.7634 49.7631 29.7634C49.6546 29.7634 49.5489 29.752 49.4461 29.7292C49.3376 29.7006 49.2662 29.6806 49.232 29.6692Z" fill="white"/>
<path d="M54.8432 30.5859C54.809 30.7115 54.729 30.82 54.6034 30.9114C54.4834 30.9971 54.3407 31.057 54.175 31.0913C54.0151 31.1256 53.8581 31.1256 53.7039 31.0913C53.5554 31.057 53.4297 30.9856 53.3269 30.8771C53.2241 30.7629 53.1727 30.603 53.1727 30.3974V24.4177L54.0294 24.2292V30.3974C54.0294 30.5002 54.0608 30.5744 54.1236 30.6201C54.1865 30.6601 54.2636 30.6829 54.3549 30.6887C54.4463 30.6887 54.5377 30.6772 54.6291 30.6544C54.7205 30.6315 54.7918 30.6087 54.8432 30.5859Z" fill="white"/>
<path d="M56.8437 25.8398C56.7066 25.8398 56.5895 25.7913 56.4924 25.6942C56.3953 25.5971 56.3468 25.48 56.3468 25.3429C56.3468 25.2059 56.3953 25.0888 56.4924 24.9917C56.5895 24.8946 56.7066 24.8461 56.8437 24.8461C56.9807 24.8461 57.0978 24.8946 57.1949 24.9917C57.292 25.0888 57.3406 25.2059 57.3406 25.3429C57.3406 25.48 57.292 25.5971 57.1949 25.6942C57.0978 25.7913 56.9807 25.8398 56.8437 25.8398ZM56.8437 27.2962C56.7066 27.2962 56.5895 27.2476 56.4924 27.1505C56.3953 27.0535 56.3468 26.9364 56.3468 26.7993C56.3468 26.6622 56.3953 26.5452 56.4924 26.4481C56.5895 26.351 56.7066 26.3024 56.8437 26.3024C56.9807 26.3024 57.0978 26.351 57.1949 26.4481C57.292 26.5452 57.3406 26.6622 57.3406 26.7993C57.3406 26.9364 57.292 27.0535 57.1949 27.1505C57.0978 27.2476 56.9807 27.2962 56.8437 27.2962Z" fill="white"/>
<path d="M57.4357 31.0827L57.9925 30.226H59.6802V31.0827H57.4357ZM58.3352 31.0827V29.3694H58.7121V31.0827H58.3352ZM57.8726 28.3413V27.2533L58.7293 26.8421V27.8787C58.6779 27.9758 58.6036 28.0586 58.5065 28.1272C58.4151 28.19 58.3123 28.2414 58.1981 28.2814C58.0896 28.3156 57.9811 28.3356 57.8726 28.3413ZM57.8726 27.082V24.4177L58.7293 24.2292V26.6708L57.8726 27.082ZM58.7293 29.7977L57.4528 28.5127C57.527 28.5127 57.6241 28.5127 57.7441 28.5127C57.864 28.5127 57.9868 28.5041 58.1124 28.487C58.2438 28.4641 58.3637 28.4242 58.4722 28.367C58.5865 28.3099 58.6721 28.2271 58.7293 28.1186V29.7977ZM57.4528 31.0827C57.2186 31.0827 57.0045 31.0256 56.8103 30.9114C56.6161 30.7972 56.459 30.643 56.3391 30.4488C56.2249 30.2489 56.1678 30.0319 56.1678 29.7977C56.1678 29.5578 56.2249 29.3408 56.3391 29.1466C56.459 28.9524 56.6161 28.7982 56.8103 28.684C57.0045 28.5698 57.2186 28.5127 57.4528 28.5127C57.687 28.5127 57.9011 28.5698 58.0953 28.684C58.2895 28.7982 58.4437 28.9524 58.5579 29.1466C58.6721 29.3408 58.7293 29.5578 58.7293 29.7977C58.7293 30.0319 58.6721 30.2489 58.5579 30.4488C58.4437 30.643 58.2895 30.7972 58.0953 30.9114C57.9011 31.0256 57.687 31.0827 57.4528 31.0827ZM57.4528 30.226C57.5727 30.226 57.6727 30.1861 57.7526 30.1061C57.8383 30.0204 57.8811 29.9176 57.8811 29.7977C57.8811 29.6778 57.8383 29.5778 57.7526 29.4979C57.6727 29.4122 57.5727 29.3694 57.4528 29.3694C57.3329 29.3694 57.2301 29.4122 57.1444 29.4979C57.0644 29.5778 57.0245 29.6778 57.0245 29.7977C57.0245 29.9176 57.0644 30.0204 57.1444 30.1061C57.2301 30.1861 57.3329 30.226 57.4528 30.226Z" fill="white"/>
<path d="M60.9611 33.0074C60.824 33.0074 60.7069 32.9589 60.6098 32.8618C60.5127 32.7647 60.4642 32.6476 60.4642 32.5105C60.4642 32.3735 60.5127 32.2564 60.6098 32.1593C60.7069 32.0622 60.824 32.0137 60.9611 32.0137C61.0981 32.0137 61.2152 32.0622 61.3123 32.1593C61.4094 32.2564 61.4579 32.3735 61.4579 32.5105C61.4579 32.6476 61.4094 32.7647 61.3123 32.8618C61.2152 32.9589 61.0981 33.0074 60.9611 33.0074ZM59.479 33.0074C59.3419 33.0074 59.2248 32.9589 59.1277 32.8618C59.0307 32.7647 58.9821 32.6476 58.9821 32.5105C58.9821 32.3735 59.0307 32.2564 59.1277 32.1593C59.2248 32.0622 59.3419 32.0137 59.479 32.0137C59.6161 32.0137 59.7331 32.0622 59.8302 32.1593C59.9273 32.2564 59.9759 32.3735 59.9759 32.5105C59.9759 32.6476 59.9273 32.7647 59.8302 32.8618C59.7331 32.9589 59.6161 33.0074 59.479 33.0074Z" fill="white"/>
<path d="M60.3659 31.0827V30.226H62.2506V31.0827H60.3659ZM59.3378 31.0827V30.226H60.3659V28.7011L61.2225 28.5127V30.8857C61.2225 30.9542 61.194 31.0028 61.1369 31.0313C61.0798 31.0599 61.0227 31.077 60.9655 31.0827C60.9084 31.0827 60.8799 31.0827 60.8799 31.0827H59.3378Z" fill="white"/>
<path d="M61.9062 31.0827V30.226H62.9342V28.7011L63.7909 28.5127V30.8857C63.7909 30.9542 63.7624 31.0028 63.7053 31.0313C63.6481 31.0599 63.591 31.077 63.5339 31.0827C63.4768 31.0827 63.4483 31.0827 63.4483 31.0827H61.9062Z" fill="white"/>
<path d="M64.7161 33.0074C64.5791 33.0074 64.462 32.9589 64.3649 32.8618C64.2678 32.7647 64.2193 32.6476 64.2193 32.5105C64.2193 32.3735 64.2678 32.2564 64.3649 32.1593C64.462 32.0622 64.5791 32.0137 64.7161 32.0137C64.8532 32.0137 64.9703 32.0622 65.0674 32.1593C65.1645 32.2564 65.213 32.3735 65.213 32.5105C65.213 32.6476 65.1645 32.7647 65.0674 32.8618C64.9703 32.9589 64.8532 33.0074 64.7161 33.0074Z" fill="white"/>
<path d="M65.4924 31.0827V30.226H66.7431V31.0827H65.4924ZM63.2736 32.3678C63.5991 32.4534 63.8647 32.4906 64.0703 32.4791C64.2816 32.4677 64.4444 32.422 64.5586 32.3421C64.6728 32.2621 64.7499 32.1622 64.7899 32.0422C64.8356 31.9223 64.8584 31.8024 64.8584 31.6824V28.7011L65.7151 28.5127V31.5967C65.7151 31.8994 65.6494 32.145 65.5181 32.3335C65.3924 32.5277 65.2268 32.6676 65.0212 32.7533C64.8156 32.8447 64.5986 32.8875 64.3701 32.8818C64.1474 32.8761 63.9389 32.8275 63.7447 32.7361C63.5449 32.6505 63.3878 32.5277 63.2736 32.3678Z" fill="white"/>
<path d="M66.3988 31.0827V30.226H69.7399V31.0827H66.3988ZM68.0094 30.6887L66.2189 28.744L66.7843 27.9644L68.6947 30.0461L68.0094 30.6887ZM67.898 30.6544V27.8445L68.7547 27.656V30.6544H67.898Z" fill="white"/>
<path d="M69.3939 31.0827V30.226H70.4219V24.4177L71.2786 24.2292V30.8857C71.2786 30.9542 71.25 31.0028 71.1929 31.0313C71.1358 31.0599 71.0787 31.077 71.0216 31.0827C70.9644 31.0827 70.9359 31.0827 70.9359 31.0827H69.3939Z" fill="white"/>
<path d="M73.3741 30.5859C73.3398 30.7115 73.2599 30.82 73.1342 30.9114C73.0143 30.9971 72.8715 31.057 72.7059 31.0913C72.546 31.1256 72.3889 31.1256 72.2347 31.0913C72.0862 31.057 71.9606 30.9856 71.8578 30.8771C71.755 30.7629 71.7036 30.603 71.7036 30.3974V24.4177L72.5602 24.2292V30.3974C72.5602 30.5002 72.5917 30.5744 72.6545 30.6201C72.7173 30.6601 72.7944 30.6829 72.8858 30.6887C72.9772 30.6887 73.0685 30.6772 73.1599 30.6544C73.2513 30.6315 73.3227 30.6087 73.3741 30.5859Z" fill="white"/>
<path d="M75.3745 25.8398C75.2375 25.8398 75.1204 25.7913 75.0233 25.6942C74.9262 25.5971 74.8776 25.48 74.8776 25.3429C74.8776 25.2059 74.9262 25.0888 75.0233 24.9917C75.1204 24.8946 75.2375 24.8461 75.3745 24.8461C75.5116 24.8461 75.6287 24.8946 75.7258 24.9917C75.8229 25.0888 75.8714 25.2059 75.8714 25.3429C75.8714 25.48 75.8229 25.5971 75.7258 25.6942C75.6287 25.7913 75.5116 25.8398 75.3745 25.8398ZM75.3745 27.2962C75.2375 27.2962 75.1204 27.2476 75.0233 27.1505C74.9262 27.0535 74.8776 26.9364 74.8776 26.7993C74.8776 26.6622 74.9262 26.5452 75.0233 26.4481C75.1204 26.351 75.2375 26.3024 75.3745 26.3024C75.5116 26.3024 75.6287 26.351 75.7258 26.4481C75.8229 26.5452 75.8714 26.6622 75.8714 26.7993C75.8714 26.9364 75.8229 27.0535 75.7258 27.1505C75.6287 27.2476 75.5116 27.2962 75.3745 27.2962Z" fill="white"/>
<path d="M75.9665 31.0827L76.5234 30.226H78.211V31.0827H75.9665ZM76.866 31.0827V29.3694H77.243V31.0827H76.866ZM76.4034 28.3413V27.2533L77.2601 26.8421V27.8787C77.2087 27.9758 77.1345 28.0586 77.0374 28.1272C76.946 28.19 76.8432 28.2414 76.729 28.2814C76.6204 28.3156 76.5119 28.3356 76.4034 28.3413ZM76.4034 27.082V24.4177L77.2601 24.2292V26.6708L76.4034 27.082ZM77.2601 29.7977L75.9836 28.5127C76.0579 28.5127 76.155 28.5127 76.2749 28.5127C76.3949 28.5127 76.5176 28.5041 76.6433 28.487C76.7746 28.4641 76.8946 28.4242 77.0031 28.367C77.1173 28.3099 77.203 28.2271 77.2601 28.1186V29.7977ZM75.9836 31.0827C75.7495 31.0827 75.5353 31.0256 75.3411 30.9114C75.1469 30.7972 74.9899 30.643 74.87 30.4488C74.7557 30.2489 74.6986 30.0319 74.6986 29.7977C74.6986 29.5578 74.7557 29.3408 74.87 29.1466C74.9899 28.9524 75.1469 28.7982 75.3411 28.684C75.5353 28.5698 75.7495 28.5127 75.9836 28.5127C76.2178 28.5127 76.432 28.5698 76.6262 28.684C76.8203 28.7982 76.9745 28.9524 77.0888 29.1466C77.203 29.3408 77.2601 29.5578 77.2601 29.7977C77.2601 30.0319 77.203 30.2489 77.0888 30.4488C76.9745 30.643 76.8203 30.7972 76.6262 30.9114C76.432 31.0256 76.2178 31.0827 75.9836 31.0827ZM75.9836 30.226C76.1036 30.226 76.2035 30.1861 76.2835 30.1061C76.3692 30.0204 76.412 29.9176 76.412 29.7977C76.412 29.6778 76.3692 29.5778 76.2835 29.4979C76.2035 29.4122 76.1036 29.3694 75.9836 29.3694C75.8637 29.3694 75.7609 29.4122 75.6752 29.4979C75.5953 29.5778 75.5553 29.6778 75.5553 29.7977C75.5553 29.9176 75.5953 30.0204 75.6752 30.1061C75.7609 30.1861 75.8637 30.226 75.9836 30.226Z" fill="white"/>
<path d="M77.8687 31.0827V30.226H81.2098V31.0827H77.8687ZM79.4793 30.6887L77.6888 28.744L78.2542 27.9644L80.1646 30.0461L79.4793 30.6887ZM79.3679 30.6544V27.8445L80.2246 27.656V30.6544H79.3679Z" fill="white"/>
<path d="M80.8637 31.0827V30.226H82.5771L83.134 31.0827H80.8637ZM83.1254 31.0827C82.8912 31.0827 82.6771 31.0256 82.4829 30.9114C82.2887 30.7972 82.1316 30.643 82.0117 30.4488C81.8975 30.2489 81.8404 30.0319 81.8404 29.7977C81.8404 29.5578 81.8975 29.3408 82.0117 29.1466C82.1316 28.9524 82.2887 28.7982 82.4829 28.684C82.6771 28.5698 82.8912 28.5127 83.1254 28.5127C83.3596 28.5127 83.5737 28.5698 83.7679 28.684C83.9621 28.7982 84.1163 28.9524 84.2305 29.1466C84.3447 29.3408 84.4019 29.5578 84.4019 29.7977C84.4019 30.0319 84.3447 30.2489 84.2305 30.4488C84.1163 30.643 83.9621 30.7972 83.7679 30.9114C83.5737 31.0256 83.3596 31.0827 83.1254 31.0827ZM83.1254 30.226C83.2453 30.226 83.3453 30.1861 83.4252 30.1061C83.5109 30.0204 83.5537 29.9176 83.5537 29.7977C83.5537 29.6778 83.5109 29.5778 83.4252 29.4979C83.3453 29.4122 83.2453 29.3694 83.1254 29.3694C83.0055 29.3694 82.9026 29.4122 82.817 29.4979C82.737 29.5778 82.697 29.6778 82.697 29.7977C82.697 29.9176 82.737 30.0204 82.817 30.1061C82.9026 30.1861 83.0055 30.226 83.1254 30.226Z" fill="white"/>
<path d="M85.1726 31.0827C85.1726 31.0827 85.144 31.0827 85.0869 31.0827C85.0298 31.077 84.9727 31.0599 84.9156 31.0313C84.8585 31.0028 84.8299 30.9542 84.8299 30.8857V24.4177L85.6866 24.2292V30.226H86.7146V31.0827H85.1726Z" fill="white"/>
<path d="M88.5929 33.0074C88.4559 33.0074 88.3388 32.9589 88.2417 32.8618C88.1446 32.7647 88.096 32.6476 88.096 32.5105C88.096 32.3735 88.1446 32.2564 88.2417 32.1593C88.3388 32.0622 88.4559 32.0137 88.5929 32.0137C88.73 32.0137 88.8471 32.0622 88.9442 32.1593C89.0413 32.2564 89.0898 32.3735 89.0898 32.5105C89.0898 32.6476 89.0413 32.7647 88.9442 32.8618C88.8471 32.9589 88.73 33.0074 88.5929 33.0074Z" fill="white"/>
<path d="M86.3686 31.0827V30.226H88.022C87.9021 30.1575 87.7764 30.049 87.6451 29.9005C87.5194 29.752 87.4223 29.6235 87.3538 29.515L87.8335 28.5983C88.0334 28.9125 88.2562 29.1923 88.5018 29.4379C88.7531 29.6835 89.0129 29.8777 89.2813 30.0204C89.5555 30.1575 89.8296 30.226 90.1038 30.226H92.1941L91.6801 31.0827H86.3686Z" fill="white"/>
<path d="M88.678 29.6692C88.8665 29.6406 89.0035 29.5835 89.0892 29.4979C89.1749 29.4122 89.2291 29.3037 89.252 29.1723C89.2691 29.0353 89.2777 28.8839 89.2777 28.7183V24.4177L90.1343 24.2292V28.5127C90.1343 28.8554 90.0887 29.1181 89.9973 29.3008C89.9002 29.4779 89.7803 29.6007 89.6375 29.6692C89.4947 29.732 89.3519 29.7634 89.2091 29.7634C89.1006 29.7634 88.995 29.752 88.8922 29.7292C88.7836 29.7006 88.7123 29.6806 88.678 29.6692Z" fill="white"/>
<path d="M94.2893 30.5859C94.255 30.7115 94.175 30.82 94.0494 30.9114C93.9295 30.9971 93.7867 31.057 93.6211 31.0913C93.4611 31.1256 93.3041 31.1256 93.1499 31.0913C93.0014 31.057 92.8757 30.9856 92.7729 30.8771C92.6701 30.7629 92.6187 30.603 92.6187 30.3974V24.4177L93.4754 24.2292V30.3974C93.4754 30.5002 93.5068 30.5744 93.5697 30.6201C93.6325 30.6601 93.7096 30.6829 93.801 30.6887C93.8923 30.6887 93.9837 30.6772 94.0751 30.6544C94.1665 30.6315 94.2379 30.6087 94.2893 30.5859Z" fill="white"/>
<path d="M39.9931 45.4494L35.0125 61.0668H30.4028L37.5426 41.7802H40.4568L39.9931 45.4494ZM44.126 61.0668L39.1321 45.4494L38.6155 41.7802H41.5694L48.7357 61.0668H44.126ZM43.914 53.8873V57.2253H33.8601V53.8873H43.914Z" fill="white"/>
<path d="M59.7078 41.7802H64.0261V54.4436C64.0261 55.9449 63.7082 57.2077 63.0724 58.2321C62.4454 59.2564 61.5712 60.0291 60.4496 60.5502C59.3281 61.0712 58.03 61.3317 56.5552 61.3317C55.0716 61.3317 53.7647 61.0712 52.6343 60.5502C51.5128 60.0291 50.6297 59.2564 49.9851 58.2321C49.3493 57.2077 49.0313 55.9449 49.0313 54.4436V41.7802H53.3629V54.4436C53.3629 55.2737 53.4865 55.9537 53.7338 56.4836C53.9899 57.0046 54.3563 57.3887 54.8332 57.636C55.3101 57.8744 55.8841 57.9936 56.5552 57.9936C57.2264 57.9936 57.796 57.8744 58.264 57.636C58.7409 57.3887 59.0985 57.0046 59.3369 56.4836C59.5842 55.9537 59.7078 55.2737 59.7078 54.4436V41.7802Z" fill="white"/>
<path d="M76.164 55.9802C76.164 55.6535 76.1154 55.362 76.0183 55.1059C75.9211 54.841 75.7445 54.5982 75.4884 54.3774C75.2323 54.1566 74.8702 53.9359 74.4022 53.7151C73.9342 53.4855 73.3204 53.2515 72.561 53.013C71.6955 52.7304 70.8699 52.4125 70.0839 52.0593C69.3068 51.6972 68.6136 51.2778 68.0043 50.8009C67.3949 50.324 66.9136 49.7677 66.5604 49.1319C66.216 48.496 66.0438 47.7543 66.0438 46.9065C66.0438 46.0852 66.2248 45.3434 66.5869 44.6811C66.949 44.0188 67.4567 43.4536 68.1102 42.9856C68.7637 42.5087 69.532 42.1467 70.4151 41.8994C71.2982 41.6433 72.2696 41.5153 73.3293 41.5153C74.7422 41.5153 75.9829 41.7669 77.0515 42.2703C78.1288 42.7648 78.9678 43.4625 79.5683 44.3632C80.1688 45.2551 80.469 46.2928 80.469 47.4761H76.1772C76.1772 46.9551 76.0668 46.4959 75.8461 46.0985C75.6341 45.6923 75.3074 45.3743 74.8658 45.1447C74.4331 44.9151 73.89 44.8003 73.2365 44.8003C72.6007 44.8003 72.0664 44.8975 71.6337 45.0918C71.2099 45.2772 70.8875 45.5333 70.6668 45.86C70.4548 46.1868 70.3488 46.5444 70.3488 46.933C70.3488 47.2421 70.4283 47.5247 70.5873 47.7807C70.7551 48.028 70.9935 48.262 71.3026 48.4828C71.6205 48.6947 72.009 48.8979 72.4683 49.0921C72.9275 49.2864 73.4529 49.4719 74.0446 49.6485C75.0778 49.9752 75.9918 50.3373 76.7865 50.7347C77.5901 51.1321 78.2657 51.5824 78.8132 52.0858C79.3607 52.5891 79.7714 53.1587 80.0451 53.7946C80.3277 54.4304 80.469 55.1501 80.469 55.9537C80.469 56.8103 80.3012 57.5697 79.9656 58.2321C79.6389 58.8944 79.162 59.4596 78.535 59.9276C77.9169 60.3868 77.1751 60.7356 76.3097 60.974C75.4442 61.2125 74.4773 61.3317 73.4087 61.3317C72.4373 61.3317 71.4792 61.2081 70.5343 60.9608C69.5894 60.7047 68.7328 60.3161 67.9645 59.7951C67.2051 59.2741 66.5957 58.6118 66.1365 57.8082C65.6862 56.9957 65.461 56.0332 65.461 54.9205H69.7793C69.7793 55.5033 69.8631 55.9979 70.0309 56.4041C70.1987 56.8015 70.4372 57.1238 70.7462 57.3711C71.0641 57.6183 71.4483 57.7949 71.8987 57.9009C72.349 58.0069 72.8524 58.0599 73.4087 58.0599C74.0534 58.0599 74.5744 57.9716 74.9718 57.7949C75.378 57.6095 75.6783 57.3578 75.8725 57.0399C76.0668 56.722 76.164 56.3688 76.164 55.9802Z" fill="white"/>
<path d="M91.0438 41.7802V61.0668H86.7387V41.7802H91.0438ZM96.9119 41.7802V45.1315H80.9899V41.7802H96.9119Z" fill="white"/>
<path d="M57.3457 76.8723C57.3457 76.7817 57.3318 76.7003 57.3039 76.6283C57.2783 76.5539 57.2295 76.4865 57.1575 76.4261C57.0854 76.3634 56.9843 76.3018 56.8542 76.2414C56.7241 76.181 56.5556 76.1182 56.3487 76.0531C56.1187 75.9788 55.9002 75.8951 55.6934 75.8022C55.4889 75.7092 55.3076 75.6011 55.1496 75.478C54.9939 75.3525 54.8707 75.2072 54.7801 75.0422C54.6918 74.8772 54.6476 74.6855 54.6476 74.4671C54.6476 74.2556 54.6941 74.0639 54.7871 73.8919C54.88 73.7176 55.0102 73.5689 55.1775 73.4457C55.3448 73.3202 55.5424 73.2238 55.7701 73.1564C56.0002 73.089 56.2523 73.0553 56.5265 73.0553C56.9007 73.0553 57.2272 73.1227 57.5061 73.2575C57.7849 73.3923 58.001 73.577 58.1544 73.8117C58.3101 74.0464 58.388 74.3149 58.388 74.617H57.3492C57.3492 74.4682 57.3178 74.3381 57.2551 74.2265C57.1947 74.1127 57.1017 74.0232 56.9762 73.9581C56.853 73.8931 56.6973 73.8605 56.5091 73.8605C56.3278 73.8605 56.1768 73.8884 56.0559 73.9442C55.9351 73.9976 55.8445 74.0708 55.784 74.1638C55.7236 74.2544 55.6934 74.3567 55.6934 74.4706C55.6934 74.5565 55.7143 74.6344 55.7562 74.7041C55.8003 74.7738 55.8654 74.8389 55.9514 74.8993C56.0373 74.9597 56.1431 75.0167 56.2686 75.0701C56.3941 75.1236 56.5393 75.1759 56.7043 75.227C56.9809 75.3107 57.2237 75.4048 57.4329 75.5093C57.6443 75.6139 57.8209 75.7313 57.9627 75.8614C58.1045 75.9916 58.2114 76.1391 58.2834 76.3041C58.3554 76.4691 58.3915 76.6562 58.3915 76.8653C58.3915 77.0861 58.3485 77.2836 58.2625 77.4579C58.1765 77.6322 58.0522 77.7798 57.8895 77.9006C57.7268 78.0215 57.5328 78.1133 57.3074 78.176C57.0819 78.2388 56.8298 78.2701 56.5509 78.2701C56.2999 78.2701 56.0525 78.2376 55.8084 78.1725C55.5644 78.1052 55.3425 78.0041 55.1426 77.8693C54.9451 77.7345 54.7871 77.5625 54.6686 77.3534C54.55 77.1442 54.4908 76.8967 54.4908 76.6109H55.54C55.54 76.7689 55.5644 76.9025 55.6132 77.0118C55.662 77.121 55.7306 77.2093 55.8189 77.2767C55.9095 77.3441 56.0164 77.3929 56.1396 77.4231C56.2651 77.4533 56.4022 77.4684 56.5509 77.4684C56.7322 77.4684 56.8809 77.4428 56.9971 77.3917C57.1156 77.3406 57.2028 77.2697 57.2586 77.1791C57.3167 77.0884 57.3457 76.9862 57.3457 76.8723Z" fill="white"/>
<path d="M59.5499 73.125L60.6096 75.4396L61.6693 73.125H62.8092L61.1394 76.3529V78.2004H60.0797V76.3529L58.4065 73.125H59.5499Z" fill="white"/>
<path d="M63.0229 73.125H64.9157C65.3038 73.125 65.6373 73.1831 65.9162 73.2993C66.1974 73.4155 66.4135 73.5875 66.5646 73.8152C66.7156 74.043 66.7911 74.323 66.7911 74.6553C66.7911 74.9272 66.7447 75.1608 66.6517 75.356C66.5611 75.5489 66.4321 75.7104 66.2648 75.8405C66.0998 75.9683 65.9057 76.0706 65.6826 76.1473L65.3515 76.3216H63.7062L63.6992 75.5059H64.9227C65.1063 75.5059 65.2585 75.4733 65.3794 75.4083C65.5002 75.3432 65.5908 75.2526 65.6513 75.1364C65.714 75.0202 65.7454 74.8854 65.7454 74.732C65.7454 74.5693 65.7152 74.4287 65.6547 74.3102C65.5943 74.1917 65.5025 74.1011 65.3794 74.0383C65.2562 73.9756 65.1017 73.9442 64.9157 73.9442H64.0687V78.2004H63.0229V73.125ZM65.8604 78.2004L64.7031 75.9381L65.8081 75.9311L66.9794 78.1516V78.2004H65.8604Z" fill="white"/>
<path d="M68.4585 73.125V78.2004H67.4162V73.125H68.4585Z" fill="white"/>
<path d="M71.3145 73.993L69.9341 78.2004H68.8221L70.708 73.125H71.4156L71.3145 73.993ZM72.4614 78.2004L71.0775 73.993L70.9659 73.125H71.6805L73.5769 78.2004H72.4614ZM72.3986 76.3111V77.1303H69.718V76.3111H72.3986Z" fill="white"/>
<path d="M59.9188 83.1274V83.9117H56.4469V83.2424L58.0888 81.482C58.2537 81.2984 58.3839 81.1369 58.4792 80.9975C58.5744 80.8557 58.643 80.7291 58.6848 80.6175C58.729 80.5037 58.7511 80.3956 58.7511 80.2933C58.7511 80.14 58.7255 80.0087 58.6744 79.8994C58.6233 79.7879 58.5477 79.7019 58.4478 79.6415C58.3502 79.5811 58.2293 79.5509 58.0853 79.5509C57.9319 79.5509 57.7994 79.588 57.6879 79.6624C57.5787 79.7368 57.495 79.8402 57.4369 79.9726C57.3811 80.1051 57.3532 80.255 57.3532 80.4223H56.3458C56.3458 80.1202 56.4179 79.8437 56.5619 79.5927C56.706 79.3394 56.9094 79.1384 57.172 78.9896C57.4346 78.8386 57.746 78.7631 58.1062 78.7631C58.4617 78.7631 58.7615 78.8211 59.0055 78.9373C59.2519 79.0512 59.4378 79.2162 59.5633 79.4323C59.6911 79.6461 59.755 79.9018 59.755 80.1992C59.755 80.3665 59.7283 80.5304 59.6748 80.6907C59.6214 80.8488 59.5447 81.0068 59.4448 81.1648C59.3471 81.3205 59.2286 81.4785 59.0892 81.6389C58.9498 81.7992 58.7952 81.9654 58.6256 82.1374L57.7437 83.1274H59.9188Z" fill="white"/>
<path d="M63.7126 80.9278V81.8062C63.7126 82.1873 63.6719 82.5162 63.5906 82.7927C63.5092 83.0669 63.3919 83.2923 63.2385 83.469C63.0874 83.6433 62.9073 83.7722 62.6982 83.8559C62.489 83.9396 62.2566 83.9814 62.001 83.9814C61.7965 83.9814 61.6059 83.9558 61.4293 83.9047C61.2527 83.8512 61.0935 83.7688 60.9518 83.6572C60.8123 83.5457 60.6915 83.4051 60.5892 83.2354C60.4893 83.0634 60.4126 82.8589 60.3592 82.6219C60.3057 82.3849 60.279 82.113 60.279 81.8062V80.9278C60.279 80.5467 60.3197 80.2201 60.401 79.9482C60.4847 79.674 60.602 79.4498 60.7531 79.2755C60.9064 79.1012 61.0877 78.9734 61.2969 78.892C61.506 78.8084 61.7384 78.7665 61.994 78.7665C62.1985 78.7665 62.3879 78.7933 62.5622 78.8467C62.7388 78.8978 62.898 78.978 63.0398 79.0872C63.1816 79.1965 63.3024 79.3371 63.4023 79.509C63.5023 79.6787 63.5789 79.882 63.6324 80.1191C63.6858 80.3538 63.7126 80.6233 63.7126 80.9278ZM62.7052 81.9387V80.7918C62.7052 80.6082 62.6947 80.4479 62.6738 80.3108C62.6552 80.1737 62.6261 80.0575 62.5866 79.9622C62.5471 79.8646 62.4983 79.7856 62.4402 79.7251C62.3821 79.6647 62.3159 79.6206 62.2415 79.5927C62.1672 79.5648 62.0847 79.5509 61.994 79.5509C61.8802 79.5509 61.7791 79.5729 61.6908 79.6171C61.6048 79.6612 61.5316 79.7321 61.4712 79.8297C61.4107 79.925 61.3643 80.0528 61.3317 80.2132C61.3015 80.3712 61.2864 80.5641 61.2864 80.7918V81.9387C61.2864 82.1223 61.2957 82.2838 61.3143 82.4232C61.3352 82.5626 61.3654 82.6823 61.4049 82.7823C61.4468 82.8799 61.4956 82.96 61.5513 83.0228C61.6094 83.0832 61.6757 83.1274 61.75 83.1552C61.8267 83.1831 61.9104 83.1971 62.001 83.1971C62.1126 83.1971 62.2113 83.175 62.2973 83.1308C62.3856 83.0844 62.46 83.0123 62.5204 82.9147C62.5831 82.8148 62.6296 82.6846 62.6598 82.5243C62.69 82.3639 62.7052 82.1687 62.7052 81.9387Z" fill="white"/>
<path d="M67.5621 80.9278V81.8062C67.5621 82.1873 67.5214 82.5162 67.4401 82.7927C67.3587 83.0669 67.2414 83.2923 67.088 83.469C66.9369 83.6433 66.7568 83.7722 66.5477 83.8559C66.3385 83.9396 66.1061 83.9814 65.8505 83.9814C65.646 83.9814 65.4555 83.9558 65.2788 83.9047C65.1022 83.8512 64.943 83.7688 64.8013 83.6572C64.6618 83.5457 64.541 83.4051 64.4387 83.2354C64.3388 83.0634 64.2621 82.8589 64.2087 82.6219C64.1552 82.3849 64.1285 82.113 64.1285 81.8062V80.9278C64.1285 80.5467 64.1692 80.2201 64.2505 79.9482C64.3342 79.674 64.4515 79.4498 64.6026 79.2755C64.756 79.1012 64.9372 78.9734 65.1464 78.892C65.3555 78.8084 65.5879 78.7665 65.8435 78.7665C66.048 78.7665 66.2374 78.7933 66.4117 78.8467C66.5884 78.8978 66.7475 78.978 66.8893 79.0872C67.0311 79.1965 67.1519 79.3371 67.2518 79.509C67.3518 79.6787 67.4284 79.882 67.4819 80.1191C67.5353 80.3538 67.5621 80.6233 67.5621 80.9278ZM66.5547 81.9387V80.7918C66.5547 80.6082 66.5442 80.4479 66.5233 80.3108C66.5047 80.1737 66.4756 80.0575 66.4361 79.9622C66.3966 79.8646 66.3478 79.7856 66.2897 79.7251C66.2316 79.6647 66.1654 79.6206 66.091 79.5927C66.0167 79.5648 65.9342 79.5509 65.8435 79.5509C65.7297 79.5509 65.6286 79.5729 65.5403 79.6171C65.4543 79.6612 65.3811 79.7321 65.3207 79.8297C65.2602 79.925 65.2138 80.0528 65.1812 80.2132C65.151 80.3712 65.1359 80.5641 65.1359 80.7918V81.9387C65.1359 82.1223 65.1452 82.2838 65.1638 82.4232C65.1847 82.5626 65.2149 82.6823 65.2544 82.7823C65.2963 82.8799 65.3451 82.96 65.4008 83.0228C65.4589 83.0832 65.5252 83.1274 65.5995 83.1552C65.6762 83.1831 65.7599 83.1971 65.8505 83.1971C65.9621 83.1971 66.0608 83.175 66.1468 83.1308C66.2351 83.0844 66.3095 83.0123 66.3699 82.9147C66.4327 82.8148 66.4791 82.6846 66.5093 82.5243C66.5396 82.3639 66.5547 82.1687 66.5547 81.9387Z" fill="white"/>
<path d="M71.443 78.8363V79.3766L69.4804 83.9117H68.4207L70.3833 79.6206H67.856V78.8363H71.443Z" fill="white"/>
<path d="M79.9445 102.633L84.3874 106.634L89.5649 103.644L87.1332 109.106L91.5761 113.106L85.6304 112.481L83.1987 117.943L81.9557 112.095L76.01 111.47L81.1875 108.481L79.9445 102.633Z" fill="white"/>
<path d="M103.898 89.0399L109.408 91.3588L113.317 86.8345L112.814 92.7919L118.325 95.1107L112.504 96.4737L112.001 102.431L108.906 97.3161L103.085 98.6791L106.993 94.1549L103.898 89.0399Z" fill="white"/>
<path d="M118.352 69.3283L121.48 70.3745L123.441 67.7232L123.413 71.021L126.54 72.0671L123.395 73.0591L123.367 76.3569L121.451 73.6722L118.306 74.6643L120.268 72.013L118.352 69.3283Z" fill="white"/>
<path d="M48.4056 102.633L43.9628 106.634L38.7852 103.644L41.2169 109.106L36.774 113.106L42.7198 112.481L45.1514 117.943L46.3944 112.095L52.3401 111.47L47.1626 108.481L48.4056 102.633Z" fill="white"/>
<path d="M24.4522 89.0399L18.9417 91.3588L15.0336 86.8345L15.5361 92.7919L10.0256 95.1107L15.8466 96.4737L16.3491 102.431L19.4442 97.3161L25.2652 98.6791L21.3571 94.1549L24.4522 89.0399Z" fill="white"/>
<path d="M9.99793 69.3283L6.87033 70.3745L4.90893 67.7232L4.93736 71.021L1.80976 72.0671L4.95494 73.0591L4.98338 76.3569L6.89877 73.6722L10.0439 74.6643L8.08254 72.013L9.99793 69.3283Z" fill="white"/>
</svg>
