<svg width="27" height="23" viewBox="0 0 27 23" fill="none" xmlns="http://www.w3.org/2000/svg">
<g clip-path="url(#clip0_104_1454)">
<path d="M11.6257 9.13407C12.8217 9.31381 13.9977 7.99429 14.2522 6.18685C14.5067 4.3794 13.7434 2.76848 12.5474 2.58874C11.3513 2.40901 10.1754 3.72853 9.92091 5.53597C9.6664 7.34341 10.4297 8.95434 11.6257 9.13407Z" fill="white"/>
<path d="M16.6415 10.5555C17.7926 10.929 19.1851 9.82618 19.7517 8.0923C20.3183 6.35841 19.8444 4.65003 18.6933 4.27652C17.5422 3.90301 16.1497 5.00581 15.5831 6.73969C15.0166 8.47358 15.4904 10.182 16.6415 10.5555Z" fill="white"/>
<path d="M6.53982 10.8241C7.62139 10.7553 8.38404 9.3693 8.24324 7.72831C8.10244 6.08732 7.1115 4.81276 6.02993 4.88151C4.94835 4.95025 4.18571 6.33627 4.32651 7.97726C4.46731 9.61825 5.45824 10.8928 6.53982 10.8241Z" fill="white"/>
<path d="M20.0075 14.5109C19.1061 13.9076 19.1392 12.3249 20.0815 10.9759C21.0237 9.62688 22.5183 9.02238 23.4197 9.62571C24.3212 10.229 24.2881 11.8117 23.3458 13.1608C22.4036 14.5098 20.909 15.1143 20.0075 14.5109Z" fill="white"/>
<path d="M14.1658 11.8364C15.8956 12.6414 15.9442 13.468 16.4574 14.6214C16.8425 15.4491 17.2373 16.1101 17.7141 16.9864C18.1544 17.7956 18.0325 19.1438 17.5132 20.0101C17.2404 20.4654 16.6851 20.773 16.1446 20.8808C15.3929 21.0307 14.5852 20.7514 13.8482 20.5072C13.1125 20.2635 12.8198 19.8059 11.7879 19.4382C11.1071 19.1956 10.3799 19.1184 9.66165 19.0567C8.72818 18.9765 8.07361 18.9728 7.42493 18.5758C6.91613 18.2644 6.72652 17.7261 6.31714 17.2013C5.74943 16.4736 6.07756 14.8044 6.84207 14.3114C9.19792 12.7922 8.68973 13.3327 10.0146 12.6824C11.2988 11.4542 12.5874 11.575 14.1658 11.8364Z" fill="white"/>
</g>
<defs>
<clipPath id="clip0_104_1454">
<rect width="21.7405" height="17.1635" fill="white" transform="translate(5.46942 0.216431) rotate(16.2701)"/>
</clipPath>
</defs>
</svg>
