<svg width="288" height="271" viewBox="0 0 288 271" fill="none" xmlns="http://www.w3.org/2000/svg">
<g opacity="0.09" clip-path="url(#clip0_36_174)">
<path d="M130.271 106.642C142.104 111.074 157.279 99.7367 164.165 81.3203C171.051 62.9039 167.04 44.3822 155.206 39.9508C143.372 35.5194 128.198 46.8565 121.312 65.2729C114.426 83.6893 118.437 102.211 130.271 106.642Z" fill="white"/>
<path d="M178.317 132.229C189.232 138.597 206.113 129.994 216.023 113.014C225.934 96.0334 225.119 77.1055 214.205 70.7373C203.291 64.369 186.409 72.972 176.499 89.9525C166.588 106.933 167.403 125.861 178.317 132.229Z" fill="white"/>
<path d="M74.1442 113.542C85.3925 115.123 96.489 102.209 98.929 84.6967C101.369 67.1847 94.2286 51.7064 82.9803 50.125C71.732 48.5437 60.6355 61.458 58.1955 78.97C55.7554 96.482 62.8959 111.96 74.1442 113.542Z" fill="white"/>
<path d="M203.457 180.883C195.645 172.636 199.73 156.106 212.58 143.962C225.429 131.818 242.179 128.659 249.99 136.906C257.802 145.153 253.717 161.684 240.868 173.828C228.018 185.972 211.269 189.13 203.457 180.883Z" fill="white"/>
<path d="M149.911 140.395C165.735 152.52 164.277 161.294 166.808 174.485C168.797 183.986 171.279 191.76 174.092 201.966C176.69 211.391 172.25 225.273 164.878 233.254C161.005 237.448 154.585 239.493 148.791 239.473C140.731 239.445 133.114 234.796 126.137 230.666C119.174 226.544 117.256 221.121 107.55 215.067C101.146 211.073 93.8752 208.716 86.6598 206.54C77.282 203.711 70.5817 202.279 64.8725 196.734C60.3945 192.385 59.725 186.334 56.7709 179.958C52.6742 171.117 59.9873 154.307 68.9898 150.763C96.731 139.844 90.2431 144.432 105.361 140.431C121.431 130.282 134.352 134.292 149.911 140.395Z" fill="white"/>
</g>
<defs>
<clipPath id="clip0_36_174">
<rect width="227" height="185" fill="white" transform="translate(88.2744) rotate(28.5)"  />
</clipPath>
</defs>
</svg>
