<svg width="21" height="22" viewBox="0 0 21 22" fill="none" xmlns="http://www.w3.org/2000/svg">
<path d="M10.7143 8.85535V13.0469H16.4806C16.2274 14.3949 15.4675 15.5363 14.3279 16.3037L17.8052 19.0292C19.8312 17.1401 21.0001 14.3654 21.0001 11.0693C21.0001 10.3018 20.9319 9.56383 20.8052 8.85546L10.7143 8.85535Z" fill="#B8CBFE"/>
<path d="M4.70954 12.8832L3.92528 13.4896L1.14923 15.6739C2.91223 19.2062 6.52564 21.6463 10.714 21.6463C13.6068 21.6463 16.0321 20.6821 17.8049 19.0291L14.3276 16.3036C13.373 16.953 12.1555 17.3466 10.714 17.3466C7.92823 17.3466 5.5614 15.4477 4.71392 12.8894L4.70954 12.8832Z" fill="#514BDB"/>
<path d="M1.14928 5.97241C0.418792 7.42856 0 9.07174 0 10.8231C0 12.5745 0.418792 14.2176 1.14928 15.6738C1.14928 15.6836 4.71431 12.8794 4.71431 12.8794C4.50003 12.2301 4.37337 11.5414 4.37337 10.823C4.37337 10.1046 4.50003 9.41593 4.71431 8.76654L1.14928 5.97241Z" fill="#436AEA"/>
<path d="M10.7142 4.30959C12.2921 4.30959 13.6947 4.86058 14.8149 5.92323L17.8831 2.82391C16.0226 1.07255 13.6071 0 10.7142 0C6.52586 0 2.91223 2.43029 1.14923 5.97244L4.71416 8.76679C5.56152 6.20856 7.92845 4.30959 10.7142 4.30959Z" fill="#D8D8FF"/>
</svg>
