<svg width="86" height="80" viewBox="0 0 86 80" fill="none" xmlns="http://www.w3.org/2000/svg">
<path d="M67.7094 65.9356C67.1902 65.9455 67.1772 65.8548 67.1321 65.5536C66.8191 63.4589 67.1641 61.6735 68.1861 60.0957C68.5417 59.5468 69.0013 59.0886 69.5531 58.7316C69.9673 58.4645 70.3939 58.3013 70.814 58.2441C71.2637 58.1831 71.7058 58.2436 72.1184 58.4295C72.9476 58.8025 73.5155 59.6347 73.5986 60.6002C73.7002 61.7752 73.3587 62.8381 72.5841 63.7597C71.9617 64.4996 71.2697 65.0339 70.5817 65.3034C70.5767 65.3053 70.5711 65.3077 70.5656 65.3105C69.6187 65.7176 68.7119 65.9167 67.7094 65.9356ZM85.6719 77.3591C85.2698 76.8891 84.5948 76.796 84.0515 76.7667C83.6103 76.743 83.1687 76.7251 82.727 76.7066C81.9103 76.6731 81.0651 76.6381 80.2444 76.5681C76.5414 76.2522 73.2756 74.6872 70.2622 71.7821C69.4159 70.967 68.8196 70.1239 68.4395 69.2071C68.41 69.1352 68.3959 69.0846 68.3889 69.0515C68.419 69.0421 68.463 69.0312 68.5276 69.0213C69.8185 68.8274 70.9121 68.5125 72.0749 67.9995C72.0869 67.9943 72.0989 67.9886 72.1104 67.982L72.3262 67.8714C72.5606 67.7522 72.882 67.5886 73.192 67.4028C76.1804 65.6108 77.576 62.1336 76.5855 58.9458C75.8559 56.6001 73.4514 54.974 70.8681 55.0809C69.2197 55.1485 67.772 55.7868 66.5642 56.9779C64.724 58.7921 63.7706 61.0995 63.651 64.0329C63.6399 64.2902 63.6555 64.5398 63.671 64.7814C63.6795 64.9171 63.688 65.0524 63.6915 65.1876C63.5854 65.1436 63.4822 65.0935 63.3791 65.0429C63.3009 65.0051 63.2223 64.9673 63.1437 64.9313C61.3576 64.1199 59.8158 62.9554 58.5424 61.9241L58.3682 61.7823C58.0968 61.5615 57.8259 61.3407 57.543 61.135C57.192 60.8797 56.7358 60.8503 56.3567 61.0565C55.9461 61.2792 55.6562 61.6546 55.5606 62.0858C55.4724 62.4887 55.5616 62.8863 55.8129 63.2064C56.0493 63.5076 56.3337 63.8126 56.7083 64.1653C58.6877 66.0316 60.9335 67.4264 63.3826 68.3106C64.1477 68.5868 64.5873 68.9759 64.8527 69.6114C65.1892 70.4171 65.5207 71.0455 65.8973 71.5892C68.9793 76.0418 73.4228 78.7729 79.1047 79.7067C80.7717 79.98 82.4922 80.0018 83.9734 79.9999C84.2593 79.9999 84.5467 79.9805 84.8301 79.9417C84.8917 79.9332 84.9533 79.9242 85.0144 79.9138C85.5116 79.8315 85.8591 79.4812 85.9433 78.9771C86.0274 78.4707 86.0725 77.8286 85.6719 77.3591Z" fill="white"/>
<path d="M60.5067 31.1149C60.3179 30.8458 60.0916 30.5985 59.8042 30.408L10.7305 4.45258C5.647 2.22935 3.37266 7.21626 5.59943 9.52792L45.405 46.1437L56.6155 55.9686C58.3205 57.7388 61.0981 56.4646 61.0981 54.0721L60.9844 32.5513C60.9844 32.0298 60.8036 31.538 60.5067 31.1149Z" fill="#425A9D"/>
<path d="M70.5153 15.3629L7.33989 0.283901C2.59741 -1.21402 -1.66436 3.50245 0.648043 7.68933L20.2008 58.0654C21.8547 61.0598 26.0304 61.821 28.7459 59.6233L46.158 45.6305C47.9702 44.1741 47.9246 41.5178 46.0629 40.1182L6.24828 9.25676C4.02201 6.9451 7.18266 3.55777 9.89164 5.35167L60.2587 32.8494C60.5467 33.0405 60.7725 33.2873 60.9613 33.5568L72.369 24.3263C75.6479 21.6732 74.6108 16.6565 70.5153 15.3629Z" fill="#8096DE"/>
<path d="M70.7581 19.6294C69.7852 18.2889 68.631 17.427 67.1333 16.9986C65.7352 16.599 64.6431 16.9366 64.1979 17.8412C63.7448 18.7613 64.1849 19.6502 65.5249 20.3382C66.6385 20.9103 67.8453 21.3174 68.7276 22.2422C69.2569 22.7969 70.023 23.0134 70.7746 22.586C71.6384 22.0952 71.5848 21.3335 71.2779 20.5741C71.1231 20.1906 70.8748 19.8374 70.7581 19.6294Z" fill="white"/>
<path d="M62.2472 16.074C61.6809 15.4612 60.1912 15.4154 59.4712 15.9653C58.9254 16.3818 58.8537 16.8925 59.3064 17.4017C59.8602 18.0235 61.3119 18.0542 62.0189 17.4769C62.5372 17.0542 62.6283 16.5662 62.2472 16.074Z" fill="white"/>
<path fill-rule="evenodd" clip-rule="evenodd" d="M24.9429 58.2101C25.336 58.3525 26.3284 57.9837 26.5032 56.9146C26.728 55.5202 22.7091 50.5102 21.4092 51.0761C19.556 51.8856 21.7983 57.073 24.9429 58.2101Z" fill="white"/>
</svg>
