<svg width="86" height="80" viewBox="0 0 86 80" fill="none" xmlns="http://www.w3.org/2000/svg">
<path d="M63.5014 79.9284L4.6184 80C2.10146 80.0034 0.040743 78.0577 0.00618905 75.6259C-0.0939674 68.6647 0.937146 54.1865 9.34478 37.9112C16.3908 24.2708 17.5601 11.1002 17.6342 4.48776C17.6613 2.04433 19.705 0.0749817 22.2349 0.0715942L81.0453 0C83.6339 -0.00289917 85.7091 2.05256 85.657 4.55259C85.4988 12.1828 84.1867 28.0242 76.6815 41.4227C68.9684 55.1946 67.9979 68.6294 68.1016 75.3952C68.1396 77.8841 66.0784 79.9255 63.5014 79.9284Z" fill="#B8CBFE"/>
<path d="M11.7108 59.6738C11.5801 59.6903 11.4469 59.6879 11.3141 59.6647C10.872 59.5877 10.5034 59.2931 10.3431 58.8882L8.57236 54.4397C8.31796 53.7996 8.64848 53.0818 9.31101 52.8355C9.96704 52.5864 10.7167 52.9091 10.9716 53.5491L11.9822 56.0888L16.2934 51.3809C16.7637 50.8667 17.5759 50.8197 18.1078 51.2735C18.6391 51.7277 18.6892 52.5124 18.2189 53.0261L12.505 59.2656C12.2967 59.4929 12.0132 59.6351 11.7108 59.6738Z" fill="#8E8EFF"/>
<path d="M16.7382 45.0756C16.6075 45.0925 16.4743 45.0896 16.3415 45.0664C15.8994 44.9895 15.5308 44.6948 15.37 44.2899L13.5998 39.8414C13.3454 39.2014 13.6759 38.4835 14.3384 38.2377C14.9949 37.9896 15.7441 38.3108 15.9985 38.9508L17.0096 41.4905L21.3208 36.7826C21.7911 36.2684 22.6033 36.2214 23.1347 36.6752C23.6665 37.1295 23.7166 37.9141 23.2463 38.4278L17.5324 44.6673C17.3236 44.8946 17.0406 45.0369 16.7382 45.0756Z" fill="#8E8EFF"/>
<path d="M22.148 30.73C22.0178 30.747 21.884 30.7441 21.7513 30.7209C21.3091 30.6439 20.9406 30.3498 20.7803 29.9444L19.0096 25.4958C18.7552 24.8558 19.0857 24.1384 19.7482 23.8922C20.4047 23.6445 21.1539 23.9653 21.4088 24.6053L22.4194 27.145L26.7306 22.4371C27.2009 21.9224 28.0126 21.8759 28.545 22.3297C29.0763 22.7839 29.1264 23.5686 28.6561 24.0823L22.9422 30.3218C22.7339 30.5491 22.4504 30.6913 22.148 30.73Z" fill="#8E8EFF"/>
<path d="M25.3064 16.974C25.1757 16.9909 25.0425 16.988 24.9098 16.9648C24.4676 16.8879 24.099 16.5933 23.9383 16.1884L22.168 11.7398C21.9136 11.0998 22.2441 10.3819 22.9067 10.1362C23.5657 9.88607 24.3124 10.2092 24.5673 10.8492L25.5778 13.3889L29.8891 8.68104C30.3593 8.16681 31.1716 8.11989 31.7034 8.57365C32.2347 9.02789 32.2848 9.81254 31.8146 10.3263L26.1006 16.5657C25.8923 16.7931 25.6089 16.9353 25.3064 16.974Z" fill="#8E8EFF"/>
<path d="M77.8003 13.8852C77.4894 13.5828 77.0752 13.4159 76.6335 13.4149L34.5523 13.3008C33.6433 13.3022 32.9007 14.0162 32.8977 14.8928C32.8957 15.7723 33.6353 16.4902 34.5453 16.4921L76.626 16.6058C76.7061 16.6058 76.7873 16.6 76.8644 16.5893C77.6701 16.4781 78.2786 15.8008 78.2806 15.0147C78.2821 14.5885 78.1118 14.1875 77.8003 13.8852Z" fill="#1C1C1B"/>
<path d="M72.8681 28.2298L30.7889 27.8685H30.7758C29.8709 27.8685 29.1308 28.5757 29.1233 29.4499C29.1193 29.876 29.2875 30.278 29.5965 30.5823C29.906 30.8861 30.3191 31.0559 30.7603 31.0598L72.8396 31.4211H72.8496C72.9277 31.4211 73.0038 31.4158 73.0795 31.4061C73.8847 31.2992 74.4977 30.6259 74.5047 29.8393C74.5122 28.9598 73.778 28.2376 72.8681 28.2298Z" fill="#1C1C1B"/>
<path d="M66.622 42.6025L25.8603 42.3268C25.4226 42.3118 25.004 42.4845 24.6895 42.7839C24.3745 43.0834 24.1997 43.4839 24.1967 43.9111C24.1937 44.3368 24.363 44.7388 24.6719 45.0416C24.9824 45.3449 25.3951 45.5142 25.8363 45.5171L66.597 45.7933H66.615C66.6936 45.7933 66.7702 45.7875 66.8463 45.7774C67.6476 45.6656 68.256 44.9918 68.2615 44.209C68.2646 43.7829 68.0963 43.3813 67.7863 43.0776C67.4768 42.7742 67.0632 42.6054 66.622 42.6025Z" fill="#1C1C1B"/>
<path d="M61.4212 56.8479L21.0977 56.3187C20.1903 56.2829 19.4376 57.0158 19.4256 57.8923C19.4191 58.3185 19.5849 58.7215 19.8929 59.0267C20.2008 59.332 20.6135 59.5037 21.0547 59.5095L61.3772 60.0388H61.3967C61.4723 60.0388 61.5459 60.0339 61.6181 60.0247C62.4233 59.9212 63.0393 59.2507 63.0498 58.4646C63.0568 58.0389 62.8905 57.636 62.5826 57.3307C62.2746 57.0255 61.8624 56.8537 61.4212 56.8479Z" fill="#1C1C1B"/>
<path d="M76.9739 2.70245C78.8853 2.90998 80.3922 3.54708 81.6261 4.74485C82.7769 5.86232 82.9978 7.08525 82.2862 7.9947C81.5625 8.92108 80.4032 8.97913 78.98 8.07162C77.7981 7.31696 76.7385 6.38574 75.3093 6.04131C74.4519 5.83426 73.8234 5.22038 73.8755 4.27465C73.9351 3.18814 74.7594 2.8292 75.7134 2.71406C76.1961 2.65601 76.6949 2.70245 76.9739 2.70245Z" fill="white"/>
<path d="M70.7348 2.69181C69.8965 2.23563 68.308 2.72229 67.7667 3.57466C67.3566 4.21999 67.4823 4.79662 68.1603 5.18168C68.9896 5.65334 70.5315 5.1633 71.0483 4.28626C71.4274 3.64432 71.3308 3.08559 70.7348 2.69181Z" fill="white"/>
<path d="M8.20915 76.6863C6.31369 76.3709 4.8484 75.6491 3.68959 74.3836C2.6079 73.2023 2.46217 71.9697 3.22787 71.1014C4.00659 70.2175 5.1679 70.2258 6.53253 71.2131C7.66731 72.0331 8.66787 73.0228 10.0741 73.448C10.9174 73.703 11.5073 74.3512 11.3976 75.2931C11.2724 76.3738 10.4276 76.6853 9.46812 76.7463C8.98286 76.7767 8.48759 76.7018 8.20915 76.6863Z" fill="white"/>
<path d="M14.4366 77.051C15.2459 77.5541 16.8609 77.1579 17.4533 76.3384C17.902 75.7173 17.8114 75.1344 17.1584 74.7116C16.3586 74.194 14.7902 74.595 14.2208 75.4411C13.8031 76.0612 13.8657 76.6243 14.4366 77.051Z" fill="white"/>
</svg>
