<svg width="91" height="80" viewBox="0 0 91 80" fill="none" xmlns="http://www.w3.org/2000/svg">
<path d="M35.2484 30.2088C35.3736 29.4848 36.0349 28.9841 36.7488 29.1156C39.4151 29.6202 43.5084 30.352 45.7821 30.6694C45.5279 29.4094 45.1954 27.5164 44.7767 24.9482C44.2762 21.874 43.8144 18.8146 43.7066 18.1028L43.6821 17.9408C43.6096 17.4323 43.8111 16.9303 44.2083 16.633C44.598 16.3408 45.137 16.3025 45.5574 16.5346L54.1225 21.2323L58.9923 1.02397C59.1329 0.440132 59.6321 0.0191269 60.244 -3.05176e-05C60.8141 -3.05176e-05 61.3099 0.383968 61.4783 0.956047L67.4261 21.1818L79.6334 12.8013C80.0899 12.4869 80.7251 12.5183 81.1583 12.8853C81.5974 13.261 81.7516 13.8853 81.5414 14.4369L76.4166 27.9279C76.1591 28.6057 75.3913 28.9588 74.7387 28.6837C74.4174 28.5491 74.1657 28.2914 74.0297 27.9579C73.8942 27.624 73.8904 27.2556 74.0181 26.9226L77.6284 17.4184L67.4053 24.4366C67.0683 24.6682 66.6358 24.7213 66.2569 24.5768C65.88 24.4322 65.5844 24.1062 65.4646 23.703L60.3671 6.37253L56.2253 23.5589C56.13 23.9594 55.8688 24.289 55.4915 24.4714C55.1362 24.6325 54.7166 24.6177 54.3758 24.4305L46.6399 20.1869C47.5304 25.9613 48.3521 30.6794 48.591 31.3839C48.8434 31.8066 48.8642 32.3386 48.6353 32.7831C48.2949 33.4384 47.7531 33.5285 47.2182 33.5285C46.5972 33.5285 45.4255 33.3996 41.7315 32.7666C40.1776 32.5006 38.2808 32.1588 36.391 31.804L36.287 31.7848C36.1307 31.7544 35.9827 31.6951 35.84 31.6042C35.3856 31.3085 35.1535 30.7608 35.2484 30.2088Z" fill="white"/>
<path d="M24.1163 48.6186L54.7766 79.6703C55.7844 80.6656 57.2612 79.1936 56.3669 78.0847L28.271 44.4878L24.1163 48.6186Z" fill="#1C1C1B"/>
<path d="M38.0774 44.1437L22.8489 27.4002L8.42468 41.7836L23.5587 58.4253C22.079 63.5296 22.2059 69.3802 23.8879 75.2002L53.8922 45.5147C48.5004 43.4228 42.9887 42.9312 38.0774 44.1437Z" fill="#425A9D"/>
<path d="M27.3208 19.4816C28.4572 20.7398 28.4091 22.7264 27.2121 23.9172L5.04534 46.025C3.84923 47.2166 1.95784 47.1674 0.821433 45.9092C-0.313732 44.6522 -0.266883 42.6661 0.927984 41.4745L23.096 19.3684C24.295 18.1711 26.1835 18.2242 27.3208 19.4816Z" fill="#8096DE"/>
<path d="M31.9524 44.2364C30.2488 44.8463 29.0042 45.7976 28.1261 47.2479C27.3068 48.6019 27.3595 49.8631 28.1995 50.6168C29.0539 51.3843 30.1257 51.1967 31.2368 49.9942C32.1601 48.995 32.9346 47.8461 34.1692 47.2017C34.9097 46.8151 35.3558 46.0723 35.1116 45.1437C34.8309 44.0766 34.0026 43.8946 33.1066 43.9821C32.6535 44.0261 32.2074 44.1776 31.9524 44.2364Z" fill="white"/>
<path d="M26.0138 51.7429C25.1146 51.7882 24.1067 53.0377 24.1162 54.0543C24.1241 54.8249 24.5209 55.256 25.2564 55.2333C26.1564 55.2059 27.1262 53.9786 27.0839 52.9528C27.0532 52.2014 26.6888 51.7704 26.0138 51.7429Z" fill="white"/>
<path d="M90.8007 47.493C92.2514 57.6002 85.6253 67.0286 76.0005 68.552C72.7795 69.0618 69.6327 68.6177 66.8138 67.4274L58.9141 73.6868L61.6766 64.0925C58.6948 61.3165 56.587 57.4709 55.9464 53.0096C54.4958 42.9028 61.1223 33.4744 70.7471 31.951C80.372 30.4277 89.35 37.3862 90.8007 47.493Z" fill="#8E8EFF"/>
<path d="M66.1395 55.5216C65.1308 55.5216 64.3132 54.6626 64.3132 53.6038V41.0681C64.3132 40.0093 65.1308 39.1503 66.1395 39.1503C67.1482 39.1503 67.9658 40.0093 67.9658 41.0681V53.6038C67.9658 54.6626 67.1482 55.5216 66.1395 55.5216Z" fill="white"/>
<path d="M67.966 58.3835C67.966 59.4428 67.1484 60.3013 66.1397 60.3013C65.131 60.3013 64.313 59.4428 64.313 58.3835C64.313 57.3242 65.131 56.4657 66.1397 56.4657C67.1484 56.4657 67.966 57.3242 67.966 58.3835Z" fill="white"/>
<path d="M79.9992 61.1524C79.9992 62.1734 79.2111 63.0006 78.2388 63.0006C77.267 63.0006 76.4789 62.1734 76.4789 61.1524C76.4789 60.1315 77.267 59.3038 78.2388 59.3038C79.2111 59.3038 79.9992 60.1315 79.9992 61.1524Z" fill="white"/>
<path d="M78.1827 58.1853C78.1682 58.1853 78.1537 58.1853 78.1392 58.1849C77.2014 58.1596 76.4605 57.3416 76.4846 56.3568C76.4858 56.2928 76.5227 54.7751 76.5513 54.2378C76.6885 51.6883 78.1019 50.4457 79.1338 49.5388C80.1177 48.6737 80.7114 48.1522 80.7603 46.5983C80.7843 45.8225 80.5198 45.0828 80.0144 44.5159C79.509 43.9491 78.8241 43.623 78.0849 43.5973C76.5596 43.5459 75.2773 44.8041 75.2267 46.4063C75.196 47.3907 74.4174 48.1643 73.4733 48.1295C72.5364 48.0973 71.8013 47.2727 71.8324 46.2883C71.9447 42.7209 74.8075 39.9179 78.1973 40.0329C79.8428 40.0899 81.3689 40.8165 82.4941 42.0787C83.6193 43.3413 84.2089 44.9883 84.1546 46.7163C84.0555 49.8636 82.4709 51.2564 81.3138 52.2734C80.3768 53.0971 79.9945 53.4698 79.9423 54.4389C79.9207 54.8386 79.8896 56.0241 79.8797 56.4473C79.8565 57.416 79.1007 58.1853 78.1827 58.1853Z" fill="white"/>
</svg>
