<svg width="408" height="128" viewBox="0 0 408 128" fill="none" xmlns="http://www.w3.org/2000/svg">
<path fill-rule="evenodd" clip-rule="evenodd" d="M238.259 124.997C229.574 124.997 221.839 123.177 215.053 119.538C209.34 116.432 204.649 112.001 200.978 106.244C200.608 107.053 200.154 107.799 199.616 108.483C195.093 114.124 190.75 117.991 186.589 120.084C182.518 122.086 177.451 123.177 171.39 123.359C167.771 126.453 163.474 128 158.498 128C153.794 128 150.175 126.908 147.642 124.724C145.199 122.541 143.978 120.084 143.978 117.354C143.978 114.988 144.837 112.941 146.556 111.212C148.275 109.483 150.808 108.619 154.156 108.619C155.332 108.619 156.689 108.755 158.227 109.028L161.891 109.438C161.8 107.072 161.257 104.843 160.262 102.75C159.358 100.657 158.181 98.6555 156.734 96.7447C155.286 94.7429 153.929 93.0141 152.663 91.5583C149.858 96.9267 147.054 101.385 144.249 104.934C143.829 105.483 143.403 106.028 142.97 106.568C142.619 107.273 142.199 107.911 141.708 108.483C137.999 113.123 134.063 117.036 129.902 120.22C125.74 123.405 121.714 124.997 117.824 124.997C114.839 124.997 112.08 123.996 109.546 121.995C107.104 119.902 105.249 117.081 103.983 113.532C99.2782 121.176 93.3525 124.997 86.2054 124.997C80.5964 124.997 76.1182 122.95 72.7708 118.855C69.4235 114.761 67.7498 109.392 67.7498 102.75C67.7498 95.4709 69.4235 88.6011 72.7708 82.1407C76.1182 75.5894 80.5511 70.3574 86.0697 66.4448C91.6788 62.4413 97.6045 60.4395 103.847 60.4395C105.837 60.4395 107.149 60.8489 107.782 61.6678C108.506 62.3958 109.094 63.7606 109.546 65.7624C111.446 65.3985 113.437 65.2165 115.517 65.2165C119.95 65.2165 122.167 66.8088 122.167 69.9935C122.167 71.9043 121.488 76.4538 120.131 83.6421C118.05 94.106 117.01 101.385 117.01 105.48C117.01 106.845 117.327 107.937 117.96 108.755C118.684 109.574 119.588 109.984 120.674 109.984C122.393 109.984 124.474 108.892 126.916 106.708C127.604 106.068 128.36 105.319 129.184 104.462C134.026 98.4256 137.691 93.442 140.178 89.511C141.716 86.8723 143.526 83.3691 145.606 79.0016C147.687 74.543 149.723 69.948 151.713 65.2165C153.432 61.2129 157.005 59.2111 162.433 59.2111C164.967 59.2111 166.731 59.4386 167.726 59.8935C168.721 60.3485 169.219 61.0764 169.219 62.0773C169.219 62.6232 169.038 63.4877 168.676 64.6705C168.314 65.8534 167.816 67.0363 167.183 68.2192C165.555 71.4948 164.74 74.2701 164.74 76.5448C164.74 77.9097 165.193 79.411 166.097 81.0489C167.093 82.6867 168.585 84.734 170.576 87.1907C173.471 91.0123 175.642 94.288 177.089 97.0177C178.627 99.6564 179.396 102.568 179.396 105.753C179.396 106.663 179.306 107.937 179.125 109.574C183.558 107.846 188.76 103.251 194.731 95.7893C195.083 95.3756 195.45 95.029 195.832 94.7496C194.262 89.3393 193.477 83.271 193.477 76.5448C193.477 63.3512 196.01 51.5679 201.076 41.195C206.233 30.822 210.895 25.6825 217.787 20.351C218.613 18.2723 218.876 14.8159 219.14 11.3405C219.553 5.90187 219.97 0.416673 222.557 0.0913916C227.328 -0.974911 233.689 7.55546 236.87 11.8206C237.902 11.5786 238.903 11.2964 239.926 11.008C243.106 10.1115 246.499 9.1549 251.712 9.1549C258.443 9.1549 263.069 9.67196 265.495 10.2212C267.085 8.08861 273.446 -0.441761 278.747 0.0913867C281.542 1.65338 281.79 6.32721 282.049 11.2169C282.232 14.6721 282.42 18.2352 283.518 20.8842C283.84 21.4783 284.151 22.0452 284.451 22.5902C287.106 27.4243 288.819 30.5419 288.819 35.8123C288.722 39.5443 288.289 44.8673 287.383 46.7823C285.393 50.149 282.458 51.2736 280.867 51.2736C279.277 51.2736 278.088 51.0957 277.059 50.1902C275.612 48.9164 273.951 47.0695 273.951 44.7948C273.951 43.3389 274.177 41.5646 274.629 39.4718C274.72 38.9259 274.855 38.0615 275.036 36.8786C275.171 35.9318 275.105 33.8997 275.063 32.5824V32.5808L275.063 32.5755L275.062 32.5622C275.048 32.1163 275.036 31.7543 275.036 31.5471C272.982 20.351 257.013 19.8179 248.532 20.8842C240.05 21.9505 235.407 24.4356 229.979 28.3482C224.061 32.6134 220.604 39.3652 217.257 47.0084C213.909 54.5606 213.425 63.8516 213.425 74.2246C213.425 86.1443 215.777 94.8339 220.482 100.293C225.276 105.662 232.107 108.346 240.973 108.346C246.401 108.346 251.558 107.254 256.443 105.07C261.328 102.796 266.304 99.2925 271.37 94.561C272.999 93.0141 274.537 92.2407 275.984 92.2407C277.251 92.2407 278.246 92.8321 278.97 94.015C279.693 95.1979 280.055 96.6992 280.055 98.519C280.055 100.157 279.739 101.795 279.105 103.433C278.563 105.07 277.658 106.526 276.391 107.8C271.054 113.532 265.083 117.855 258.478 120.766C251.874 123.587 245.134 124.997 238.259 124.997ZM91.0907 111.212C93.0811 111.212 94.9809 110.029 96.7903 107.664C98.5997 105.298 99.9115 102.159 100.726 98.2461L105.747 73.1327C101.947 73.2237 98.4187 74.6795 95.1618 77.5002C91.9954 80.2299 89.4623 83.8696 87.5625 88.4191C85.6626 92.9686 84.7127 97.7911 84.7127 102.887C84.7127 105.707 85.2555 107.8 86.3411 109.165C87.5172 110.53 89.1004 111.212 91.0907 111.212Z" fill="white"/>
<path d="M78.9792 9.12079C83.3217 9.48475 86.5334 10.4402 88.6142 11.987C90.7854 13.5338 91.871 15.8541 91.871 18.9478C91.871 21.4955 91.0568 23.2698 89.4284 24.2707C87.8904 25.1806 85.2668 25.6356 81.5576 25.6356C77.8484 25.6356 71.8322 25.5446 63.5091 25.3626L54.2813 25.2261C50.3911 44.8801 47.3152 61.6679 45.0535 75.5894C43.9678 82.2317 42.8822 89.602 41.7966 97.7001C40.8014 105.707 40.1229 112.077 39.761 116.808C39.5801 119.447 38.4492 121.494 36.3684 122.95C34.2877 124.315 31.7545 124.997 28.7691 124.997C26.1455 124.997 24.0647 124.269 22.5267 122.814C21.0792 121.267 20.3555 119.265 20.3555 116.808C20.3555 113.896 20.7626 109.483 21.5768 103.569C22.4815 97.5636 23.7933 89.511 25.5122 79.411L26.055 75.8624C28.3167 61.7588 31.3022 44.9256 35.0114 25.3626C26.7788 25.6356 18.5913 26.0905 10.4491 26.7275C3.48305 27.2734 0 24.9077 0 19.6302C0 17.2644 0.678516 15.3081 2.03555 13.7613C3.48305 12.1235 5.60906 11.1226 8.4136 10.7586C19.0889 9.39376 30.8499 8.71132 43.6964 8.71132H61.3378C70.0228 8.71132 75.9033 8.84781 78.9792 9.12079Z" fill="white"/>
<path fill-rule="evenodd" clip-rule="evenodd" d="M289.975 118.855C293.323 122.95 297.801 124.997 303.41 124.997C310.557 124.997 316.483 121.176 321.187 113.532C322.454 117.081 324.308 119.902 326.751 121.995C329.284 123.996 332.043 124.997 335.029 124.997C338.919 124.997 342.945 123.405 347.106 120.22C350.128 117.908 353.03 115.213 355.812 112.133C359.298 120.709 366.425 124.997 377.195 124.997C387.056 124.997 396.465 119.492 405.422 108.483C407.141 106.481 408 103.66 408 100.02C408 98.1096 407.638 96.6082 406.914 95.5163C406.281 94.4245 405.376 93.8785 404.2 93.8785C402.843 93.8785 401.622 94.5155 400.536 95.7893C396.194 100.976 392.62 104.661 389.816 106.845C387.011 108.937 383.754 109.984 380.045 109.984C376.698 109.984 374.255 108.755 372.717 106.299C371.179 103.842 370.41 100.157 370.41 95.2434C370.41 91.3308 370.817 86.7813 371.632 81.5948C372.627 75.9534 373.305 72.4047 373.667 70.9489H385.609C389.409 70.9489 392.439 70.13 394.701 68.4921C397.053 66.8543 398.229 64.534 398.229 61.5314C398.229 59.8025 397.913 58.6197 397.279 57.9827C396.646 57.3458 395.606 57.0273 394.158 57.0273H376.653C378.1 50.112 380.271 40.831 383.166 29.1842C383.528 27.3644 383.709 26.1815 383.709 25.6356C383.709 23.6338 383.031 22.1779 381.674 21.268C380.407 20.3581 378.417 19.9032 375.703 19.9032C372.808 19.9032 370.455 20.6311 368.646 22.0869C366.927 23.5428 365.661 26.0905 364.846 29.7302C362.585 39.1022 360.549 48.2012 358.74 57.0273H351.819C347.748 57.0273 345.712 59.5751 345.712 64.6705C345.712 66.8543 346.165 68.4466 347.069 69.4475C348.064 70.4484 349.919 70.9489 352.633 70.9489H356.161C355.076 77.3182 354.262 83.2781 353.719 88.8286C353.456 91.5626 353.32 94.1685 353.312 96.6461C349.486 101.211 346.422 104.565 344.121 106.708C341.678 108.892 339.598 109.984 337.879 109.984C336.793 109.984 335.888 109.574 335.165 108.755C334.531 107.937 334.215 106.845 334.215 105.48C334.215 101.385 335.255 94.106 337.336 83.6421C338.693 76.4538 339.371 71.9043 339.371 69.9935C339.371 66.8088 337.155 65.2165 332.722 65.2165C330.641 65.2165 328.651 65.3985 326.751 65.7624C326.299 63.7606 325.711 62.3958 324.987 61.6678C324.354 60.8489 323.042 60.4395 321.051 60.4395C314.809 60.4395 308.883 62.4413 303.274 66.4448C297.756 70.3574 293.323 75.5894 289.975 82.1407C286.628 88.6011 284.954 95.4709 284.954 102.75C284.954 109.392 286.628 114.761 289.975 118.855ZM313.995 107.664C312.185 110.029 310.286 111.212 308.295 111.212C306.305 111.212 304.722 110.53 303.546 109.165C302.46 107.8 301.917 105.707 301.917 102.887C301.917 97.7911 302.867 92.9686 304.767 88.4191C306.667 83.8696 309.2 80.2299 312.366 77.5002C315.623 74.6795 319.152 73.2237 322.951 73.1327L317.93 98.2461C317.116 102.159 315.804 105.298 313.995 107.664Z" fill="white"/>
<path d="M249.133 53.2353C247.5 54.5646 245.14 55.348 242.366 54.4178C241.81 54.2315 241.51 53.6277 241.695 53.069C241.88 52.5103 242.481 52.2084 243.036 52.3946C245.032 53.0638 246.648 52.5144 247.799 51.5778C248.385 51.1005 248.845 50.5243 249.154 49.9644C249.472 49.3891 249.592 48.9026 249.592 48.6078H251.712C251.712 49.5681 251.963 50.9847 252.77 51.898C253.15 52.3281 253.67 52.6687 254.421 52.8072C255.191 52.9491 256.263 52.8891 257.738 52.3946C258.294 52.2084 258.894 52.5103 259.079 53.069C259.264 53.6277 258.964 54.2315 258.409 54.4178C256.703 54.9896 255.258 55.1295 254.039 54.9048C252.802 54.6768 251.865 54.0844 251.185 53.3149C250.83 52.9133 250.551 52.4706 250.332 52.0152C249.99 52.4487 249.589 52.8636 249.133 53.2353Z" fill="white"/>
<path d="M250.652 48.6078C250.122 48.6078 247.472 46.9371 247.472 44.3427C247.472 42.2101 249.062 42.2101 250.652 42.2101C252.242 42.2101 253.833 42.2101 253.833 44.3427C253.833 47.0084 251.182 48.6078 250.652 48.6078Z" fill="white"/>
<path d="M252.33 69.5808L253.833 63.536L246.411 63.536L248.09 69.4768C248.09 69.4768 240.581 81.663 240.05 85.9282C239.52 90.1934 243.531 94.82 243.531 94.82C243.531 94.82 251.182 90.1934 253.299 86.253C255.415 82.3127 252.33 69.5807 252.33 69.5808Z" fill="white"/>
</svg>
